<svg width="512" height="145" viewBox="0 0 512 145" fill="none" xmlns="http://www.w3.org/2000/svg">
<mask id="mask0_258_4446" style="mask-type:luminance" maskUnits="userSpaceOnUse" x="0" y="89" width="512" height="25">
<path d="M0 89.5443H512V113.871H0V89.5443Z" fill="white"/>
</mask>
<g mask="url(#mask0_258_4446)">
<g opacity="0.619995">
<mask id="mask1_258_4446" style="mask-type:luminance" maskUnits="userSpaceOnUse" x="0" y="89" width="85" height="25">
<path d="M24.516 113.865H0C22.2603 105.759 44.5219 97.6525 66.7822 89.5459H84.9038C64.7745 97.6525 44.6453 105.759 24.516 113.865Z" fill="white"/>
</mask>
<g mask="url(#mask1_258_4446)">
<mask id="mask2_258_4446" style="mask-type:luminance" maskUnits="userSpaceOnUse" x="-40952" y="-39006" width="81673" height="81672">
<path d="M-40951.7 -39005.7H40720.6V42665.3H-40951.7V-39005.7Z" fill="url(#paint0_linear_258_4446)"/>
</mask>
<g mask="url(#mask2_258_4446)">
<path d="M24.516 113.863H0C22.2603 105.758 44.5219 97.6513 66.7822 89.5446H84.9038C64.7745 97.6513 44.6453 105.758 24.516 113.863Z" fill="url(#paint1_linear_258_4446)"/>
</g>
</g>
<mask id="mask3_258_4446" style="mask-type:luminance" maskUnits="userSpaceOnUse" x="32" y="89" width="77" height="25">
<path d="M57.0153 113.864H32.498C51.9331 105.759 71.3683 97.6524 90.8034 89.5457H108.924C91.6209 97.6524 74.3181 105.759 57.0153 113.864Z" fill="white"/>
</mask>
<g mask="url(#mask3_258_4446)">
<mask id="mask4_258_4446" style="mask-type:luminance" maskUnits="userSpaceOnUse" x="-40952" y="-39006" width="81673" height="81672">
<path d="M-40951.7 -39005.7H40720.6V42665.3H-40951.7V-39005.7Z" fill="url(#paint2_linear_258_4446)"/>
</mask>
<g mask="url(#mask4_258_4446)">
<path d="M57.0134 113.863H32.4961C51.9312 105.758 71.3663 97.6513 90.8014 89.5446H108.922C91.6189 97.6513 74.3162 105.758 57.0134 113.863Z" fill="url(#paint3_linear_258_4446)"/>
</g>
</g>
<mask id="mask5_258_4446" style="mask-type:luminance" maskUnits="userSpaceOnUse" x="64" y="89" width="69" height="25">
<path d="M89.5143 113.864H64.9971C81.6057 105.759 98.2143 97.6524 114.824 89.5457H132.945C118.468 97.6524 103.991 105.759 89.5143 113.864Z" fill="white"/>
</mask>
<g mask="url(#mask5_258_4446)">
<mask id="mask6_258_4446" style="mask-type:luminance" maskUnits="userSpaceOnUse" x="-40952" y="-39006" width="81673" height="81672">
<path d="M-40951.7 -39005.7H40720.6V42665.3H-40951.7V-39005.7Z" fill="url(#paint4_linear_258_4446)"/>
</mask>
<g mask="url(#mask6_258_4446)">
<path d="M89.5173 113.863H65C81.6086 105.758 98.2173 97.6513 114.827 89.5446H132.947C118.471 97.6513 103.994 105.758 89.5173 113.863Z" fill="url(#paint5_linear_258_4446)"/>
</g>
</g>
<mask id="mask7_258_4446" style="mask-type:luminance" maskUnits="userSpaceOnUse" x="97" y="89" width="60" height="25">
<path d="M122.013 113.864H97.4971C111.279 105.759 125.063 97.6524 138.845 89.5457H156.966C145.315 97.6524 133.664 105.759 122.013 113.864Z" fill="white"/>
</mask>
<g mask="url(#mask7_258_4446)">
<mask id="mask8_258_4446" style="mask-type:luminance" maskUnits="userSpaceOnUse" x="-40952" y="-39006" width="81673" height="81672">
<path d="M-40951.7 -39005.7H40720.6V42665.3H-40951.7V-39005.7Z" fill="url(#paint6_linear_258_4446)"/>
</mask>
<g mask="url(#mask8_258_4446)">
<path d="M122.012 113.863H97.4961C111.278 105.758 125.062 97.6513 138.844 89.5446H156.965C145.314 97.6513 133.663 105.758 122.012 113.863Z" fill="url(#paint7_linear_258_4446)"/>
</g>
</g>
<mask id="mask9_258_4446" style="mask-type:luminance" maskUnits="userSpaceOnUse" x="129" y="89" width="52" height="25">
<path d="M154.512 113.864H129.995C140.952 105.759 151.909 97.6524 162.866 89.5457H180.987C172.162 97.6524 163.337 105.759 154.512 113.864Z" fill="white"/>
</mask>
<g mask="url(#mask9_258_4446)">
<mask id="mask10_258_4446" style="mask-type:luminance" maskUnits="userSpaceOnUse" x="-40952" y="-39006" width="81673" height="81672">
<path d="M-40951.7 -39005.7H40720.6V42665.3H-40951.7V-39005.7Z" fill="url(#paint8_linear_258_4446)"/>
</mask>
<g mask="url(#mask10_258_4446)">
<path d="M154.513 113.863H129.996C140.953 105.758 151.91 97.6513 162.867 89.5446H180.988C172.163 97.6513 163.338 105.758 154.513 113.863Z" fill="url(#paint9_linear_258_4446)"/>
</g>
</g>
<mask id="mask11_258_4446" style="mask-type:luminance" maskUnits="userSpaceOnUse" x="162" y="89" width="44" height="25">
<path d="M187.01 113.864H162.494C170.625 105.759 178.755 97.6524 186.887 89.5457H205.007C199.009 97.6524 193.01 105.759 187.01 113.864Z" fill="white"/>
</mask>
<g mask="url(#mask11_258_4446)">
<mask id="mask12_258_4446" style="mask-type:luminance" maskUnits="userSpaceOnUse" x="-40952" y="-39006" width="81673" height="81672">
<path d="M-40951.7 -39005.7H40720.6V42665.3H-40951.7V-39005.7Z" fill="url(#paint10_linear_258_4446)"/>
</mask>
<g mask="url(#mask12_258_4446)">
<path d="M187.016 113.863H162.5C170.63 105.758 178.761 97.6513 186.893 89.5446H205.013C199.015 97.6513 193.015 105.758 187.016 113.863Z" fill="url(#paint11_linear_258_4446)"/>
</g>
</g>
<mask id="mask13_258_4446" style="mask-type:luminance" maskUnits="userSpaceOnUse" x="194" y="89" width="36" height="25">
<path d="M219.51 113.864H194.993C200.298 105.759 205.604 97.6524 210.908 89.5457H229.029C225.856 97.6524 222.683 105.759 219.51 113.864Z" fill="white"/>
</mask>
<g mask="url(#mask13_258_4446)">
<mask id="mask14_258_4446" style="mask-type:luminance" maskUnits="userSpaceOnUse" x="-40952" y="-39006" width="81673" height="81672">
<path d="M-40951.7 -39005.7H40720.6V42665.3H-40951.7V-39005.7Z" fill="url(#paint12_linear_258_4446)"/>
</mask>
<g mask="url(#mask14_258_4446)">
<path d="M219.509 113.863H194.992C200.297 105.758 205.603 97.6513 210.907 89.5446H229.028C225.855 97.6513 222.682 105.758 219.509 113.863Z" fill="url(#paint13_linear_258_4446)"/>
</g>
</g>
<mask id="mask15_258_4446" style="mask-type:luminance" maskUnits="userSpaceOnUse" x="227" y="89" width="27" height="25">
<path d="M252.008 113.864H227.492C229.971 105.759 232.45 97.6524 234.929 89.5457H253.05C252.702 97.6524 252.356 105.759 252.008 113.864Z" fill="white"/>
</mask>
<g mask="url(#mask15_258_4446)">
<mask id="mask16_258_4446" style="mask-type:luminance" maskUnits="userSpaceOnUse" x="-40952" y="-39006" width="81673" height="81672">
<path d="M-40951.7 -39005.7H40720.6V42665.3H-40951.7V-39005.7Z" fill="url(#paint14_linear_258_4446)"/>
</mask>
<g mask="url(#mask16_258_4446)">
<path d="M252.008 113.863H227.492C229.971 105.758 232.45 97.6513 234.929 89.5446H253.05C252.702 97.6513 252.356 105.758 252.008 113.863Z" fill="url(#paint15_linear_258_4446)"/>
</g>
</g>
<mask id="mask17_258_4446" style="mask-type:luminance" maskUnits="userSpaceOnUse" x="258" y="89" width="27" height="25">
<path d="M284.508 113.864H259.991C259.644 105.759 259.297 97.6524 258.95 89.5457H277.071C279.551 97.6524 282.029 105.759 284.508 113.864Z" fill="white"/>
</mask>
<g mask="url(#mask17_258_4446)">
<mask id="mask18_258_4446" style="mask-type:luminance" maskUnits="userSpaceOnUse" x="-40952" y="-39006" width="81673" height="81672">
<path d="M-40951.7 -39005.7H40720.6V42665.3H-40951.7V-39005.7Z" fill="url(#paint16_linear_258_4446)"/>
</mask>
<g mask="url(#mask18_258_4446)">
<path d="M284.507 113.863H259.99C259.643 105.758 259.296 97.6513 258.949 89.5446H277.07C279.55 97.6513 282.028 105.758 284.507 113.863Z" fill="url(#paint17_linear_258_4446)"/>
</g>
</g>
<mask id="mask19_258_4446" style="mask-type:luminance" maskUnits="userSpaceOnUse" x="282" y="89" width="36" height="25">
<path d="M317.005 113.864H292.489C289.317 105.759 286.144 97.6524 282.971 89.5457H301.091C306.396 97.6524 311.701 105.759 317.005 113.864Z" fill="white"/>
</mask>
<g mask="url(#mask19_258_4446)">
<mask id="mask20_258_4446" style="mask-type:luminance" maskUnits="userSpaceOnUse" x="-40952" y="-39006" width="81673" height="81672">
<path d="M-40951.7 -39005.7H40720.6V42665.3H-40951.7V-39005.7Z" fill="url(#paint18_linear_258_4446)"/>
</mask>
<g mask="url(#mask20_258_4446)">
<path d="M317.004 113.863H292.488C289.315 105.758 286.142 97.6513 282.969 89.5446H301.089C306.394 97.6513 311.7 105.758 317.004 113.863Z" fill="url(#paint19_linear_258_4446)"/>
</g>
</g>
<mask id="mask21_258_4446" style="mask-type:luminance" maskUnits="userSpaceOnUse" x="306" y="89" width="44" height="25">
<path d="M349.505 113.864H324.988C318.99 105.759 312.991 97.6524 306.991 89.5457H325.113C333.243 97.6524 341.375 105.759 349.505 113.864Z" fill="white"/>
</mask>
<g mask="url(#mask21_258_4446)">
<mask id="mask22_258_4446" style="mask-type:luminance" maskUnits="userSpaceOnUse" x="-40952" y="-39006" width="81673" height="81672">
<path d="M-40951.7 -39005.7H40720.6V42665.3H-40951.7V-39005.7Z" fill="url(#paint20_linear_258_4446)"/>
</mask>
<g mask="url(#mask22_258_4446)">
<path d="M349.506 113.863H324.989C318.991 105.758 312.992 97.6513 306.992 89.5446H325.114C333.244 97.6513 341.376 105.758 349.506 113.863Z" fill="url(#paint21_linear_258_4446)"/>
</g>
</g>
<mask id="mask23_258_4446" style="mask-type:luminance" maskUnits="userSpaceOnUse" x="331" y="89" width="52" height="25">
<path d="M382.005 113.864H357.488C348.663 105.759 339.837 97.6524 331.013 89.5457H349.134C360.091 97.6524 371.048 105.759 382.005 113.864Z" fill="white"/>
</mask>
<g mask="url(#mask23_258_4446)">
<mask id="mask24_258_4446" style="mask-type:luminance" maskUnits="userSpaceOnUse" x="-40952" y="-39006" width="81673" height="81672">
<path d="M-40951.7 -39005.7H40720.6V42665.3H-40951.7V-39005.7Z" fill="url(#paint22_linear_258_4446)"/>
</mask>
<g mask="url(#mask24_258_4446)">
<path d="M382.004 113.863H357.487C348.662 105.758 339.836 97.6513 331.012 89.5446H349.133C360.09 97.6513 371.047 105.758 382.004 113.863Z" fill="url(#paint23_linear_258_4446)"/>
</g>
</g>
<mask id="mask25_258_4446" style="mask-type:luminance" maskUnits="userSpaceOnUse" x="355" y="89" width="60" height="25">
<path d="M414.502 113.864H389.986C378.335 105.759 366.684 97.6524 355.033 89.5457H373.154C386.937 97.6524 400.719 105.759 414.502 113.864Z" fill="white"/>
</mask>
<g mask="url(#mask25_258_4446)">
<mask id="mask26_258_4446" style="mask-type:luminance" maskUnits="userSpaceOnUse" x="-40952" y="-39006" width="81673" height="81672">
<path d="M-40951.7 -39005.7H40720.6V42665.3H-40951.7V-39005.7Z" fill="url(#paint24_linear_258_4446)"/>
</mask>
<g mask="url(#mask26_258_4446)">
<path d="M414.508 113.863H389.992C378.341 105.758 366.69 97.6513 355.039 89.5446H373.159C386.943 97.6513 400.725 105.758 414.508 113.863Z" fill="url(#paint25_linear_258_4446)"/>
</g>
</g>
<mask id="mask27_258_4446" style="mask-type:luminance" maskUnits="userSpaceOnUse" x="379" y="89" width="69" height="25">
<path d="M447.002 113.864H422.485C408.008 105.759 393.531 97.6524 379.054 89.5457H397.175C413.784 97.6524 430.393 105.759 447.002 113.864Z" fill="white"/>
</mask>
<g mask="url(#mask27_258_4446)">
<mask id="mask28_258_4446" style="mask-type:luminance" maskUnits="userSpaceOnUse" x="-40952" y="-39006" width="81673" height="81672">
<path d="M-40951.7 -39005.7H40720.6V42665.3H-40951.7V-39005.7Z" fill="url(#paint26_linear_258_4446)"/>
</mask>
<g mask="url(#mask28_258_4446)">
<path d="M447.003 113.863H422.486C408.009 105.758 393.532 97.6513 379.055 89.5446H397.176C413.785 97.6513 430.394 105.758 447.003 113.863Z" fill="url(#paint27_linear_258_4446)"/>
</g>
</g>
<mask id="mask29_258_4446" style="mask-type:luminance" maskUnits="userSpaceOnUse" x="403" y="89" width="77" height="25">
<path d="M479.501 113.864H454.985C437.681 105.759 420.378 97.6524 403.075 89.5457H421.197C440.632 97.6524 460.066 105.759 479.501 113.864Z" fill="white"/>
</mask>
<g mask="url(#mask29_258_4446)">
<mask id="mask30_258_4446" style="mask-type:luminance" maskUnits="userSpaceOnUse" x="-40952" y="-39006" width="81673" height="81672">
<path d="M-40951.7 -39005.7H40720.6V42665.3H-40951.7V-39005.7Z" fill="url(#paint28_linear_258_4446)"/>
</mask>
<g mask="url(#mask30_258_4446)">
<path d="M479.5 113.863H454.984C437.68 105.758 420.377 97.6513 403.074 89.5446H421.196C440.631 97.6513 460.065 105.758 479.5 113.863Z" fill="url(#paint29_linear_258_4446)"/>
</g>
</g>
<mask id="mask31_258_4446" style="mask-type:luminance" maskUnits="userSpaceOnUse" x="427" y="89" width="85" height="25">
<path d="M512 113.864H487.483C467.354 105.759 447.226 97.6524 427.097 89.5457H445.217C467.479 97.6524 489.739 105.759 512 113.864Z" fill="white"/>
</mask>
<g mask="url(#mask31_258_4446)">
<mask id="mask32_258_4446" style="mask-type:luminance" maskUnits="userSpaceOnUse" x="-40952" y="-39006" width="81673" height="81672">
<path d="M-40951.7 -39005.7H40720.6V42665.3H-40951.7V-39005.7Z" fill="url(#paint30_linear_258_4446)"/>
</mask>
<g mask="url(#mask32_258_4446)">
<path d="M512.001 113.863H487.484C467.355 105.758 447.227 97.6513 427.098 89.5446H445.218C467.48 97.6513 489.74 105.758 512.001 113.863Z" fill="url(#paint31_linear_258_4446)"/>
</g>
</g>
</g>
</g>
<path d="M77.7037 31.4388H113.139C113.193 33.0414 113.126 34.593 112.939 36.0884C112.752 37.5864 112.338 38.8937 111.696 40.0165C111.056 41.1394 110.106 42.0491 108.85 42.742C107.594 43.4374 105.925 43.7851 103.84 43.7851H91.2528L89.8097 51.802H104.882L102.878 64.1483H87.8045L86.2816 73.0476H98.7078C100.152 73.0476 101.366 73.2208 102.357 73.5685C103.345 73.9162 104.12 74.3836 104.681 74.9718C105.243 75.56 105.643 76.2541 105.884 77.0555C106.124 77.8568 106.245 78.7142 106.245 79.6214C106.245 80.5312 106.15 81.4658 105.963 82.4267C105.776 83.39 105.55 84.3259 105.283 85.2332H68.6436L77.7037 31.4388Z" fill="#8240DF"/>
<path d="M122.599 65.8315L113.538 47.9533C114.928 47.4735 116.492 47.0597 118.229 46.7108C119.965 46.3643 121.557 46.1899 123 46.1899C124.174 46.1899 125.191 46.3643 126.046 46.7108C126.901 47.0597 127.622 47.5133 128.21 48.0741C128.799 48.6349 129.306 49.2643 129.735 49.9584C130.161 50.6526 130.562 51.3741 130.936 52.1231L132.78 55.9714L136.709 50.68C137.831 49.1845 139.086 48.0617 140.477 47.3127C141.865 46.565 143.897 46.1899 146.57 46.1899C147.906 46.1899 149.216 46.378 150.498 46.7507C151.782 47.1258 152.93 47.6068 153.945 48.195L138.072 66.5531L147.292 84.5922C145.901 85.0719 144.365 85.4334 142.682 85.6739C140.998 85.9144 139.434 86.0353 137.992 86.0353C136.816 86.0353 135.799 85.8745 134.945 85.5542C134.089 85.2327 133.369 84.7928 132.78 84.232C132.192 83.6687 131.685 83.0431 131.257 82.3465C130.829 81.6523 130.455 80.9308 130.135 80.183L128.371 76.4145L121.957 85.2327H106.885L122.599 65.8315Z" fill="#8240DF"/>
<path d="M173.989 58.4541C173.4 58.0815 172.679 57.8958 171.824 57.8958C170.647 57.8958 169.619 58.3083 168.738 59.1333C167.856 59.957 167.134 60.9677 166.572 62.1641C166.011 63.3617 165.583 64.6777 165.29 66.1133C164.996 67.5502 164.85 68.8538 164.85 70.0227C164.85 71.6715 165.143 72.8691 165.731 73.6131C166.319 74.3596 167.121 74.731 168.136 74.731C169.365 74.731 170.247 74.3459 170.782 73.5745C171.315 72.8031 171.664 71.9656 171.824 71.0608L173.989 58.4541ZM186.416 75.4525C186.308 76.2538 186.215 77.0701 186.134 77.8976C186.055 78.7276 186.015 79.5414 186.015 80.3427C186.015 82.2669 186.174 83.8184 186.496 84.9923C185.586 85.2603 184.558 85.4996 183.409 85.7139C182.259 85.927 181.016 86.0354 179.681 86.0354C177.437 86.0354 175.712 85.7663 174.51 85.2329C173.307 84.7007 172.331 83.5231 171.583 81.7048C170.033 83.4695 168.469 84.6858 166.894 85.3538C165.317 86.0205 163.352 86.3557 161.002 86.3557C159.398 86.3557 157.901 86.0354 156.511 85.3936C155.121 84.7531 153.905 83.8184 152.864 82.5871C151.82 81.3584 151.005 79.8093 150.418 77.9375C149.829 76.0682 149.536 73.9022 149.536 71.4434C149.536 68.0251 150.07 64.75 151.14 61.6232C152.208 58.4964 153.786 55.7435 155.87 53.3658C157.954 50.988 160.519 49.09 163.566 47.6743C166.613 46.2573 170.113 45.5495 174.068 45.5495C176.847 45.5495 179.547 45.8286 182.166 46.3907C184.785 46.9527 187.619 48.1678 190.665 50.0383L186.416 75.4525Z" fill="#8240DF"/>
<path d="M197.478 46.912C198.386 46.6989 199.295 46.5381 200.203 46.4297C201.112 46.3238 202.233 46.2702 203.57 46.2702C205.976 46.2702 207.846 46.6303 209.182 47.3531C210.518 48.0747 211.32 49.0505 211.587 50.278C212.55 49.1564 213.913 48.0747 215.676 47.0329C217.441 45.9898 219.686 45.4689 222.411 45.4689C224.869 45.4689 226.846 45.9374 228.344 46.8721C229.84 47.808 230.856 49.0754 231.39 50.6793C232.084 49.9316 232.806 49.2362 233.555 48.5956C234.303 47.9538 235.13 47.4055 236.04 46.9519C236.948 46.4982 237.977 46.1381 239.127 45.8689C240.276 45.6022 241.624 45.4689 243.175 45.4689C244.886 45.4689 246.343 45.7493 247.545 46.3113C248.748 46.8721 249.722 47.6335 250.471 48.5956C251.219 49.5577 251.766 50.6793 252.115 51.9629C252.462 53.2453 252.636 54.6086 252.636 56.0505C252.636 57.227 252.555 58.3635 252.396 59.4577C252.235 60.5544 252.047 61.6635 251.834 62.7851L249.669 75.6935C249.562 76.4412 249.456 77.1902 249.349 77.9379C249.241 78.6869 249.189 79.4346 249.189 80.1823C249.189 80.9313 249.215 81.6529 249.269 82.347C249.321 83.0424 249.456 83.7378 249.669 84.4307C248.76 84.8594 247.637 85.2457 246.303 85.5934C244.965 85.9411 243.443 86.1156 241.733 86.1156C238.686 86.1156 236.561 85.5673 235.358 84.4718C234.156 83.3777 233.581 81.7052 233.635 79.4608V78.5785C233.635 78.2582 233.661 77.9653 233.716 77.6974L236.441 61.6635C236.494 61.3956 236.533 61.1027 236.561 60.7812C236.587 60.4609 236.602 60.168 236.602 59.8989C236.602 59.257 236.494 58.7511 236.28 58.376C236.066 58.0021 235.531 57.8152 234.678 57.8152C233.607 57.8152 232.82 58.204 232.312 58.9779C231.803 59.753 231.47 60.5942 231.309 61.5027L231.07 62.7851L227.301 85.2333H211.748L215.676 61.6635C215.73 61.3956 215.769 61.1027 215.797 60.7812C215.823 60.4609 215.837 60.168 215.837 59.8989C215.837 59.257 215.73 58.7511 215.517 58.376C215.303 58.0021 214.768 57.8152 213.913 57.8152C212.844 57.8152 212.055 58.204 211.548 58.9779C211.039 59.753 210.706 60.5942 210.546 61.5027L206.538 85.2333H190.983L197.478 46.912Z" fill="#8240DF"/>
<path d="M275.082 32.7216C276.311 32.2942 277.659 31.9328 279.131 31.6387C280.6 31.3458 282.057 31.1975 283.499 31.1975C285.958 31.1975 287.936 31.7184 289.432 32.7615C290.928 33.8033 291.81 35.5817 292.078 38.0928L295.044 63.588H295.365L303.142 46.7516L300.978 32.1608C302.633 31.8393 304.197 31.5726 305.667 31.3582C307.137 31.1451 308.405 31.0367 309.476 31.0367C312.201 31.0367 314.125 31.6 315.247 32.7216C316.37 33.8432 316.984 35.4483 317.092 37.5308L318.775 63.588H319.176L328.637 38.2523C329.438 36.1163 330.733 34.4053 332.525 33.1217C334.315 31.8393 336.545 31.1975 339.22 31.1975C341.089 31.1975 342.639 31.3184 343.868 31.5589C345.098 31.7994 346.22 32.1072 347.236 32.4811L322.062 85.6337H309.476L306.349 64.6299H306.029L295.847 85.6337H283.981L275.082 32.7216Z" fill="#8240DF"/>
<path d="M362.549 58.4541C361.961 58.0815 361.239 57.8958 360.385 57.8958C359.208 57.8958 358.18 58.3083 357.298 59.1333C356.416 59.957 355.695 60.9677 355.134 62.1641C354.573 63.3617 354.144 64.6777 353.851 66.1133C353.556 67.5502 353.41 68.8538 353.41 70.0227C353.41 71.6715 353.703 72.8691 354.291 73.6131C354.88 74.3596 355.681 74.731 356.698 74.731C357.925 74.731 358.808 74.3459 359.342 73.5745C359.876 72.8031 360.225 71.9656 360.385 71.0608L362.549 58.4541ZM374.976 75.4525C374.869 76.2538 374.776 77.0701 374.695 77.8976C374.616 78.7276 374.575 79.5414 374.575 80.3427C374.575 82.2669 374.735 83.8184 375.056 84.9923C374.148 85.2603 373.118 85.4996 371.97 85.7139C370.82 85.927 369.578 86.0354 368.242 86.0354C365.997 86.0354 364.274 85.7663 363.071 85.2329C361.867 84.7007 360.893 83.5231 360.144 81.7048C358.593 83.4695 357.029 84.6858 355.454 85.3538C353.878 86.0205 351.913 86.3557 349.562 86.3557C347.958 86.3557 346.461 86.0354 345.073 85.3936C343.681 84.7531 342.467 83.8184 341.424 82.5871C340.382 81.3584 339.567 79.8093 338.979 77.9375C338.389 76.0682 338.098 73.9022 338.098 71.4434C338.098 68.0251 338.631 64.75 339.7 61.6232C340.768 58.4964 342.346 55.7435 344.431 53.3658C346.515 50.988 349.08 49.09 352.128 47.6743C355.174 46.2573 358.674 45.5495 362.629 45.5495C365.408 45.5495 368.107 45.8286 370.727 46.3907C373.345 46.9527 376.179 48.1678 379.225 50.0383L374.976 75.4525Z" fill="#8240DF"/>
<path d="M389.085 29.0338C389.993 28.8207 390.94 28.66 391.93 28.5515C392.92 28.4456 394.082 28.392 395.418 28.392C397.074 28.392 398.438 28.5802 399.507 28.9541C400.576 29.3267 401.418 29.8351 402.033 30.4757C402.646 31.1175 403.061 31.8391 403.276 32.6416C403.489 33.443 403.596 34.2717 403.596 35.1266C403.596 35.3945 403.582 35.6475 403.555 35.888C403.529 36.1286 403.489 36.3815 403.437 36.6495L396.861 75.6923C396.753 76.4413 396.647 77.1903 396.54 77.9368C396.433 78.687 396.38 79.4335 396.38 80.1825C396.38 80.9314 396.407 81.653 396.46 82.3459C396.514 83.0425 396.647 83.7379 396.861 84.4308C395.953 84.8595 394.829 85.2446 393.494 85.5936C392.158 85.9412 390.634 86.1157 388.924 86.1157C385.878 86.1157 383.74 85.5661 382.511 84.4707C381.28 83.3765 380.694 81.7053 380.748 79.4609V78.5786C380.748 78.2583 380.772 77.9654 380.827 77.6975L389.085 29.0338Z" fill="#8240DF"/>
<path d="M410.971 29.0338C411.879 28.8207 412.802 28.66 413.738 28.5515C414.672 28.4456 415.808 28.392 417.144 28.392C418.8 28.392 420.177 28.5802 421.274 28.9541C422.369 29.3267 423.209 29.8351 423.798 30.4757C424.387 31.1175 424.8 31.8391 425.041 32.6416C425.282 33.443 425.402 34.2717 425.402 35.1266C425.402 35.3945 425.387 35.6475 425.363 35.888C425.334 36.1286 425.294 36.3815 425.242 36.6495L421.153 60.9421C421.419 60.3538 421.847 59.6186 422.435 58.7362C423.023 57.8552 423.612 57.0937 424.199 56.4519L429.732 50.1984C430.372 49.4507 431.014 48.7827 431.656 48.1945C432.297 47.6063 432.991 47.1115 433.741 46.7115C434.487 46.3102 435.315 46.0024 436.226 45.788C437.133 45.5749 438.175 45.469 439.352 45.469C441.063 45.469 442.571 45.788 443.882 46.4298C445.19 47.0716 446.433 47.9265 447.609 48.9958L433.819 64.7891L439.031 75.1315C439.94 76.8426 440.821 78.4054 441.677 79.8211C442.531 81.2393 443.627 82.4269 444.963 83.389C443.252 84.4595 441.476 85.1811 439.632 85.5549C437.789 85.9263 436.145 86.1157 434.702 86.1157C432.243 86.1157 430.333 85.6733 428.969 84.7922C427.607 83.9099 426.55 82.721 425.802 81.2243L422.196 74.0884C421.767 73.2348 421.353 72.2727 420.952 71.2034C420.551 70.1342 420.217 69.0923 419.95 68.0767L417.065 85.2334H401.511L410.971 29.0338Z" fill="#8240DF"/>
<path d="M270.225 20.2039C275.805 20.2039 280.327 15.6813 280.327 10.102C280.327 4.52266 275.805 0.00012207 270.225 0.00012207C264.646 0.00012207 260.123 4.52266 260.123 10.102C260.123 15.6813 264.646 20.2039 270.225 20.2039Z" fill="#6E6ECC"/>
<path d="M273.928 76.8039C274.272 77.3796 274.538 78.0002 274.709 78.6545L279.601 97.1709C280.091 99.0265 281.347 100.618 283.094 101.413C283.819 101.743 284.573 101.921 285.36 101.921C285.911 101.921 286.478 101.834 287.062 101.649C288.338 101.359 289.35 100.68 290.043 99.5237C290.199 99.2633 290.339 98.9791 290.462 98.6688C291.014 97.2743 291.053 95.729 290.66 94.2809L284.85 72.9182C284.607 72.0234 284.223 71.1747 283.715 70.3983C281.221 66.5961 277.044 62.7627 272.752 58.9268L276.75 40.6174C281.595 45.525 286.45 49.4992 291.323 52.1848C292.015 52.5661 292.785 52.758 293.549 52.758C294.497 52.758 295.437 52.4627 296.213 51.8632C296.677 51.5056 297.068 51.0594 297.375 50.5086C298.363 49.1465 298.477 47.7245 297.862 46.2515C297.445 45.2508 296.736 44.3996 295.868 43.7504L289.845 39.2328C287.321 37.3398 285.041 35.1377 283.078 32.6677C280.126 28.954 277.309 25.882 274.878 24.6396C274.452 24.4215 273.985 24.2981 273.509 24.2495C271.887 24.0837 267.46 23.6064 265.361 23.3784C265.189 23.3597 265.016 23.351 264.843 23.351C264.251 23.351 263.662 23.4606 263.106 23.6762C251.799 28.0766 244.299 35.9203 239.659 46.3537C239.179 47.4354 239.026 48.6492 239.301 49.7995C239.632 51.1753 240.478 52.1673 241.92 52.7182C242.588 52.9724 243.213 53.087 243.804 53.087C244.446 53.087 245.047 52.9524 245.615 52.7157C246.835 52.2097 247.803 51.2376 248.389 50.0537C250.675 45.429 253.283 41.3825 256.546 38.5137L252.27 71.2981C252.175 72.0259 251.966 72.7337 251.65 73.3955L250.025 76.8039H249.997L249.964 76.9322L242.014 93.6116C241.339 95.0298 241.188 96.6599 241.687 98.1491C242.092 99.3605 242.858 100.366 243.985 101.164C244.228 101.334 244.484 101.496 244.761 101.649C244.789 101.657 244.816 101.666 244.845 101.675C245.459 101.857 246.082 101.944 246.695 101.944C249.19 101.944 251.547 100.507 252.673 98.1603L261.807 79.1306C262.005 78.7181 262.191 78.2869 262.368 77.842C263.544 74.8735 264.272 71.1984 264.753 67.1344L272.895 75.4567C273.294 75.8642 273.638 76.3178 273.928 76.8039Z" fill="#6E6ECC"/>
<path d="M90.618 124.887C90.618 124.997 90.6055 125.109 90.5806 125.224C90.5557 125.337 90.5283 125.434 90.4984 125.514C90.1208 126.597 89.707 127.692 89.2546 128.802C88.801 129.908 88.305 131.012 87.7629 132.11C87.2208 133.209 86.6375 134.287 86.0119 135.345C85.3851 136.404 84.7146 137.425 83.9992 138.41C83.9294 138.518 83.8422 138.603 83.7375 138.663C83.6341 138.723 83.5144 138.77 83.3799 138.804C83.2465 138.839 83.0945 138.861 82.9262 138.871C82.7567 138.881 82.5686 138.885 82.3592 138.885C82.1012 138.885 81.8844 138.876 81.7111 138.856C81.5367 138.836 81.3983 138.806 81.2936 138.768C81.189 138.726 81.1142 138.673 81.0693 138.603C81.0245 138.533 81.0033 138.449 81.0033 138.35L80.0038 128.51L75.4862 138.305C75.4363 138.414 75.3728 138.506 75.293 138.579C75.2132 138.655 75.1086 138.715 74.9802 138.759C74.8506 138.804 74.6886 138.836 74.4954 138.856C74.301 138.876 74.0655 138.885 73.7876 138.885C73.5084 138.885 73.2704 138.876 73.071 138.856C72.8728 138.836 72.7108 138.806 72.5874 138.768C72.4628 138.726 72.3706 138.673 72.312 138.603C72.2522 138.533 72.2223 138.449 72.2223 138.35L70.8053 125.603C70.7953 125.514 70.7879 125.427 70.7829 125.342C70.7779 125.259 70.7754 125.185 70.7754 125.125C70.7754 125.007 70.7953 124.911 70.8352 124.835C70.8751 124.76 70.9424 124.702 71.0371 124.655C71.1306 124.612 71.2602 124.582 71.4247 124.567C71.5879 124.552 71.7986 124.546 72.0578 124.546C72.3157 124.546 72.5226 124.552 72.6772 124.567C72.8304 124.582 72.9501 124.607 73.0348 124.642C73.1183 124.677 73.1756 124.726 73.2056 124.791C73.2355 124.856 73.2554 124.932 73.2654 125.022L74.3097 136.113V136.247L74.3683 136.113L79.453 125.022C79.4916 124.942 79.5365 124.87 79.5863 124.806C79.6362 124.741 79.7059 124.689 79.7944 124.649C79.8842 124.609 80.0038 124.582 80.1533 124.567C80.3016 124.552 80.4911 124.546 80.7191 124.546C80.9484 124.546 81.1391 124.552 81.2936 124.567C81.4469 124.582 81.5691 124.607 81.6588 124.642C81.7473 124.677 81.8121 124.724 81.852 124.784C81.8918 124.844 81.9168 124.913 81.9267 124.992L83.0297 136.038V136.158L83.1044 136.038C83.5618 135.323 84.0192 134.53 84.4765 133.661C84.9327 132.792 85.3751 131.876 85.8025 130.918C86.23 129.958 86.635 128.977 87.0176 127.974C87.4002 126.97 87.7504 125.986 88.0695 125.022C88.0881 124.932 88.128 124.856 88.1878 124.791C88.2477 124.726 88.3299 124.677 88.4346 124.642C88.5393 124.607 88.6751 124.582 88.8446 124.567C89.0129 124.552 89.226 124.546 89.4852 124.546C89.7232 124.546 89.9201 124.552 90.0734 124.567C90.2279 124.582 90.3451 124.602 90.4248 124.627C90.5034 124.652 90.5557 124.687 90.5806 124.731C90.6055 124.775 90.618 124.827 90.618 124.887Z" fill="#8240DF"/>
<path d="M102.112 128.51C101.644 127.823 101.14 127.31 100.599 126.967C100.057 126.623 99.4473 126.453 98.7719 126.453C98.236 126.453 97.7512 126.58 97.3188 126.833C96.8863 127.086 96.5037 127.422 96.171 127.84C95.837 128.257 95.5491 128.732 95.3061 129.263C95.0618 129.794 94.8637 130.344 94.7104 130.91C94.5558 131.477 94.4412 132.033 94.3664 132.58C94.2929 133.126 94.2555 133.618 94.2555 134.056C94.2555 134.403 94.2817 134.749 94.3365 135.091C94.3913 135.435 94.496 135.748 94.6506 136.031C94.8038 136.314 95.0157 136.542 95.2836 136.716C95.5516 136.891 95.9005 136.978 96.3267 136.978C96.8738 136.978 97.4234 136.826 97.9743 136.523C98.5264 136.22 99.0411 135.8 99.5171 135.263C99.9944 134.726 100.417 134.094 100.785 133.369C101.152 132.644 101.426 131.845 101.605 130.97L102.112 128.51ZM102.574 138.424C102.534 138.593 102.425 138.713 102.245 138.781C102.067 138.851 101.769 138.885 101.352 138.885C101.152 138.885 100.989 138.875 100.859 138.856C100.73 138.836 100.626 138.809 100.547 138.774C100.467 138.739 100.412 138.694 100.382 138.639C100.352 138.586 100.352 138.512 100.382 138.424L100.874 135.889C100.745 136.208 100.512 136.556 100.174 136.933C99.8349 137.311 99.4361 137.659 98.9738 137.976C98.5114 138.295 97.9967 138.558 97.4309 138.766C96.8639 138.975 96.2881 139.079 95.7011 139.079C94.906 139.079 94.2468 138.94 93.7258 138.662C93.2049 138.384 92.7887 138.016 92.4809 137.559C92.173 137.103 91.9612 136.584 91.8478 136.009C91.7331 135.433 91.6758 134.841 91.6758 134.235C91.6758 133.677 91.7281 133.048 91.8328 132.341C91.9362 131.636 92.1057 130.915 92.34 130.18C92.5731 129.445 92.8759 128.729 93.2485 128.033C93.6212 127.337 94.0711 126.714 94.5982 126.162C95.1254 125.61 95.736 125.168 96.4314 124.835C97.1268 124.502 97.9169 124.335 98.8018 124.335C99.6866 124.335 100.444 124.515 101.075 124.872C101.707 125.23 102.27 125.722 102.767 126.349L103.05 124.992C103.09 124.834 103.205 124.719 103.393 124.648C103.582 124.579 103.875 124.545 104.273 124.545C104.472 124.545 104.638 124.552 104.773 124.567C104.907 124.582 105.013 124.609 105.093 124.648C105.173 124.689 105.222 124.739 105.242 124.798C105.262 124.857 105.267 124.922 105.257 124.992L102.574 138.424Z" fill="#8240DF"/>
<path d="M109.596 138.424C109.576 138.502 109.542 138.57 109.492 138.624C109.442 138.679 109.367 138.727 109.269 138.766C109.169 138.806 109.037 138.836 108.874 138.856C108.709 138.875 108.507 138.885 108.269 138.885C108.021 138.885 107.819 138.875 107.666 138.856C107.511 138.836 107.392 138.806 107.308 138.766C107.224 138.727 107.169 138.679 107.144 138.624C107.119 138.57 107.116 138.502 107.136 138.424L111.102 118.508C111.122 118.427 111.154 118.357 111.199 118.299C111.244 118.239 111.317 118.189 111.422 118.149C111.527 118.109 111.661 118.08 111.825 118.059C111.989 118.041 112.195 118.031 112.444 118.031C112.682 118.031 112.878 118.041 113.032 118.059C113.187 118.08 113.306 118.109 113.39 118.149C113.475 118.189 113.527 118.239 113.547 118.299C113.567 118.357 113.571 118.427 113.562 118.508L109.596 138.424Z" fill="#8240DF"/>
<path d="M127.291 124.962C127.291 125.082 127.249 125.205 127.164 125.335C127.081 125.463 126.914 125.643 126.666 125.871L120.836 130.865L124.847 137.618C124.946 137.797 125.016 137.949 125.055 138.074C125.095 138.197 125.115 138.295 125.115 138.364C125.115 138.453 125.095 138.531 125.055 138.595C125.016 138.66 124.943 138.712 124.839 138.751C124.735 138.792 124.596 138.823 124.421 138.849C124.248 138.873 124.031 138.885 123.773 138.885C123.495 138.885 123.276 138.878 123.118 138.863C122.958 138.849 122.828 138.82 122.73 138.782C122.63 138.742 122.556 138.692 122.506 138.632C122.456 138.572 122.411 138.498 122.372 138.409L118.078 130.984L116.602 138.424C116.582 138.503 116.547 138.57 116.498 138.625C116.448 138.68 116.372 138.727 116.267 138.767C116.162 138.805 116.029 138.837 115.864 138.855C115.701 138.875 115.499 138.885 115.261 138.885C115.022 138.885 114.826 138.875 114.672 138.855C114.517 138.837 114.399 138.808 114.314 138.774C114.229 138.739 114.172 138.692 114.142 138.632C114.112 138.572 114.107 138.503 114.127 138.424L118.108 118.507C118.128 118.427 118.16 118.358 118.205 118.298C118.25 118.238 118.325 118.188 118.429 118.149C118.533 118.11 118.667 118.081 118.831 118.06C118.995 118.04 119.202 118.031 119.45 118.031C119.688 118.031 119.885 118.04 120.039 118.06C120.193 118.081 120.312 118.11 120.397 118.149C120.481 118.188 120.533 118.238 120.553 118.298C120.573 118.358 120.578 118.427 120.568 118.507L118.138 130.643L124.355 125.022C124.435 124.933 124.523 124.855 124.623 124.79C124.721 124.727 124.836 124.677 124.966 124.641C125.095 124.607 125.246 124.581 125.421 124.567C125.594 124.552 125.801 124.545 126.039 124.545C126.278 124.545 126.479 124.552 126.643 124.567C126.806 124.581 126.936 124.607 127.031 124.641C127.125 124.677 127.192 124.722 127.231 124.776C127.271 124.83 127.291 124.893 127.291 124.962Z" fill="#8240DF"/>
<path d="M155.93 124.887C155.93 124.997 155.917 125.109 155.892 125.224C155.867 125.337 155.84 125.434 155.81 125.514C155.432 126.597 155.019 127.692 154.566 128.802C154.113 129.908 153.617 131.012 153.074 132.11C152.532 133.209 151.949 134.287 151.323 135.345C150.697 136.404 150.026 137.425 149.311 138.41C149.241 138.518 149.154 138.603 149.049 138.663C148.946 138.723 148.826 138.77 148.691 138.804C148.558 138.839 148.406 138.861 148.238 138.871C148.068 138.881 147.88 138.885 147.671 138.885C147.413 138.885 147.196 138.876 147.023 138.856C146.848 138.836 146.71 138.806 146.605 138.768C146.5 138.726 146.426 138.673 146.381 138.603C146.336 138.533 146.315 138.449 146.315 138.35L145.315 128.51L140.798 138.305C140.748 138.414 140.684 138.506 140.605 138.579C140.525 138.655 140.42 138.715 140.292 138.759C140.162 138.804 140 138.836 139.807 138.856C139.613 138.876 139.377 138.885 139.099 138.885C138.82 138.885 138.582 138.876 138.382 138.856C138.184 138.836 138.022 138.806 137.899 138.768C137.774 138.726 137.682 138.673 137.624 138.603C137.564 138.533 137.534 138.449 137.534 138.35L136.117 125.603C136.107 125.514 136.099 125.427 136.094 125.342C136.089 125.259 136.087 125.185 136.087 125.125C136.087 125.007 136.107 124.911 136.147 124.835C136.187 124.76 136.254 124.702 136.349 124.655C136.442 124.612 136.572 124.582 136.736 124.567C136.899 124.552 137.11 124.546 137.369 124.546C137.627 124.546 137.834 124.552 137.989 124.567C138.142 124.582 138.262 124.607 138.346 124.642C138.43 124.677 138.487 124.726 138.517 124.791C138.547 124.856 138.567 124.932 138.577 125.022L139.621 136.113V136.247L139.68 136.113L144.764 125.022C144.803 124.942 144.848 124.87 144.898 124.806C144.948 124.741 145.017 124.689 145.106 124.649C145.196 124.609 145.315 124.582 145.465 124.567C145.613 124.552 145.803 124.546 146.031 124.546C146.26 124.546 146.451 124.552 146.605 124.567C146.758 124.582 146.881 124.607 146.97 124.642C147.059 124.677 147.124 124.724 147.163 124.784C147.203 124.844 147.228 124.913 147.238 124.992L148.341 136.038V136.158L148.416 136.038C148.873 135.323 149.331 134.53 149.788 133.661C150.244 132.792 150.687 131.876 151.114 130.918C151.542 129.958 151.947 128.977 152.329 127.974C152.712 126.97 153.062 125.986 153.381 125.022C153.4 124.932 153.44 124.856 153.499 124.791C153.559 124.726 153.641 124.677 153.746 124.642C153.851 124.607 153.987 124.582 154.156 124.567C154.324 124.552 154.537 124.546 154.797 124.546C155.035 124.546 155.232 124.552 155.385 124.567C155.539 124.582 155.657 124.602 155.736 124.627C155.815 124.652 155.867 124.687 155.892 124.731C155.917 124.775 155.93 124.827 155.93 124.887Z" fill="#8240DF"/>
<path d="M163.071 120.49C163.021 120.768 162.953 121.001 162.869 121.19C162.785 121.38 162.673 121.531 162.533 121.645C162.395 121.76 162.221 121.841 162.012 121.891C161.803 121.941 161.55 121.966 161.252 121.966C160.963 121.966 160.725 121.941 160.536 121.891C160.348 121.841 160.208 121.76 160.118 121.645C160.03 121.531 159.98 121.38 159.97 121.19C159.96 121.001 159.98 120.768 160.03 120.49C160.088 120.211 160.163 119.98 160.253 119.796C160.343 119.613 160.453 119.459 160.588 119.334C160.723 119.21 160.893 119.125 161.103 119.081C161.311 119.036 161.565 119.013 161.863 119.013C162.151 119.013 162.388 119.036 162.571 119.081C162.755 119.125 162.894 119.21 162.988 119.334C163.083 119.459 163.135 119.613 163.145 119.796C163.154 119.98 163.13 120.211 163.071 120.49ZM159.21 138.424C159.19 138.503 159.155 138.57 159.105 138.625C159.055 138.68 158.98 138.727 158.882 138.767C158.782 138.806 158.65 138.837 158.487 138.856C158.322 138.876 158.12 138.885 157.882 138.885C157.634 138.885 157.433 138.876 157.279 138.856C157.125 138.837 157.005 138.806 156.92 138.767C156.837 138.727 156.782 138.68 156.757 138.625C156.732 138.57 156.73 138.503 156.75 138.424L159.418 125.006C159.428 124.937 159.458 124.873 159.508 124.813C159.557 124.753 159.632 124.704 159.731 124.665C159.83 124.624 159.962 124.595 160.126 124.574C160.29 124.555 160.497 124.545 160.745 124.545C160.983 124.545 161.179 124.555 161.333 124.574C161.488 124.595 161.607 124.624 161.692 124.665C161.776 124.704 161.831 124.753 161.855 124.813C161.88 124.873 161.888 124.937 161.878 125.006L159.21 138.424Z" fill="#8240DF"/>
<path d="M173.357 125.156C173.357 125.245 173.352 125.342 173.342 125.446C173.332 125.55 173.312 125.657 173.283 125.767C173.253 125.876 173.213 125.986 173.163 126.096C173.113 126.204 173.062 126.301 173.007 126.385C172.952 126.471 172.89 126.537 172.82 126.587C172.75 126.637 172.672 126.662 172.582 126.662H169.153L167.647 134.145C167.607 134.354 167.572 134.587 167.542 134.845C167.514 135.103 167.499 135.318 167.499 135.487C167.499 135.993 167.605 136.363 167.819 136.598C168.032 136.831 168.377 136.948 168.855 136.948C169.124 136.948 169.357 136.925 169.555 136.881C169.754 136.836 169.926 136.79 170.07 136.74C170.214 136.69 170.34 136.642 170.45 136.598C170.56 136.553 170.654 136.53 170.734 136.53C170.813 136.53 170.875 136.558 170.92 136.611C170.965 136.666 170.987 136.768 170.987 136.918C170.987 137.048 170.975 137.188 170.95 137.343C170.925 137.496 170.892 137.648 170.852 137.798C170.813 137.947 170.763 138.081 170.704 138.2C170.644 138.32 170.579 138.415 170.51 138.483C170.43 138.553 170.31 138.623 170.152 138.691C169.993 138.761 169.809 138.823 169.6 138.878C169.392 138.933 169.17 138.975 168.937 139.004C168.704 139.035 168.472 139.049 168.244 139.049C167.687 139.049 167.205 138.99 166.797 138.871C166.39 138.751 166.047 138.565 165.769 138.312C165.491 138.059 165.284 137.74 165.151 137.358C165.016 136.975 164.949 136.515 164.949 135.98C164.949 135.86 164.954 135.728 164.964 135.583C164.974 135.44 164.991 135.288 165.016 135.13C165.041 134.97 165.066 134.811 165.091 134.652C165.116 134.493 165.143 134.344 165.173 134.205L166.679 126.662H164.816C164.706 126.662 164.621 126.63 164.561 126.564C164.502 126.5 164.472 126.374 164.472 126.184C164.472 126.046 164.487 125.884 164.517 125.701C164.546 125.516 164.591 125.344 164.651 125.185C164.711 125.026 164.788 124.893 164.882 124.783C164.976 124.674 165.089 124.619 165.217 124.619H167.096L167.737 121.429C167.747 121.359 167.779 121.294 167.834 121.235C167.888 121.176 167.965 121.123 168.065 121.08C168.164 121.034 168.295 121.001 168.46 120.981C168.624 120.963 168.825 120.951 169.064 120.951C169.302 120.951 169.498 120.963 169.652 120.981C169.807 121.001 169.926 121.034 170.01 121.08C170.095 121.123 170.15 121.176 170.174 121.235C170.199 121.294 170.207 121.359 170.197 121.429L169.555 124.619H172.985C173.133 124.619 173.233 124.674 173.283 124.783C173.332 124.893 173.357 125.018 173.357 125.156Z" fill="#8240DF"/>
<path d="M185.194 138.424C185.174 138.502 185.139 138.57 185.09 138.624C185.04 138.679 184.962 138.727 184.858 138.766C184.754 138.806 184.622 138.836 184.464 138.856C184.304 138.875 184.101 138.885 183.852 138.885C183.614 138.885 183.417 138.875 183.264 138.856C183.109 138.836 182.99 138.806 182.906 138.766C182.821 138.727 182.767 138.679 182.742 138.624C182.717 138.57 182.709 138.502 182.719 138.424L184.374 130.135C184.424 129.877 184.466 129.586 184.5 129.263C184.535 128.94 184.552 128.658 184.552 128.42C184.552 128.132 184.522 127.868 184.464 127.63C184.404 127.391 184.307 127.185 184.172 127.012C184.039 126.838 183.864 126.702 183.651 126.602C183.437 126.502 183.177 126.453 182.869 126.453C182.342 126.453 181.802 126.607 181.251 126.915C180.699 127.223 180.187 127.649 179.716 128.19C179.243 128.732 178.821 129.369 178.448 130.105C178.076 130.841 177.804 131.631 177.636 132.476L176.443 138.424C176.423 138.502 176.388 138.57 176.338 138.624C176.289 138.679 176.214 138.727 176.115 138.766C176.016 138.806 175.884 138.836 175.72 138.856C175.556 138.875 175.354 138.885 175.116 138.885C174.868 138.885 174.666 138.875 174.513 138.856C174.358 138.836 174.238 138.806 174.155 138.766C174.07 138.727 174.015 138.679 173.99 138.624C173.966 138.57 173.963 138.502 173.983 138.424L177.949 118.508C177.968 118.427 178.001 118.357 178.046 118.299C178.091 118.239 178.164 118.189 178.269 118.149C178.374 118.109 178.508 118.08 178.671 118.059C178.836 118.041 179.042 118.031 179.291 118.031C179.529 118.031 179.724 118.041 179.879 118.059C180.034 118.08 180.153 118.109 180.237 118.149C180.321 118.189 180.374 118.239 180.394 118.299C180.414 118.357 180.417 118.427 180.409 118.508L179.216 124.575C179.166 124.834 179.106 125.097 179.038 125.365C178.967 125.633 178.896 125.898 178.821 126.162C178.746 126.425 178.671 126.676 178.598 126.915C178.522 127.153 178.456 127.362 178.396 127.542C178.554 127.193 178.803 126.833 179.141 126.46C179.479 126.087 179.876 125.745 180.334 125.431C180.791 125.118 181.296 124.857 181.847 124.648C182.399 124.44 182.967 124.335 183.554 124.335C184.19 124.335 184.732 124.429 185.179 124.612C185.627 124.795 185.992 125.049 186.275 125.371C186.558 125.695 186.764 126.08 186.893 126.527C187.022 126.974 187.087 127.456 187.087 127.973C187.087 128.331 187.067 128.68 187.027 129.016C186.988 129.355 186.933 129.698 186.863 130.045L185.194 138.424Z" fill="#8240DF"/>
<path d="M209.493 124.903C209.493 125.013 209.483 125.124 209.463 125.238C209.443 125.352 209.408 125.459 209.36 125.558C209.031 126.463 208.673 127.405 208.286 128.384C207.898 129.362 207.446 130.385 206.93 131.454C206.413 132.522 205.808 133.639 205.118 134.8C204.427 135.964 203.605 137.186 202.65 138.469L198.789 143.731C198.729 143.811 198.656 143.88 198.566 143.939C198.476 143.999 198.367 144.051 198.238 144.096C198.109 144.141 197.952 144.173 197.769 144.193C197.584 144.213 197.369 144.223 197.119 144.223C196.851 144.223 196.631 144.209 196.456 144.186C196.282 144.161 196.151 144.118 196.061 144.059C195.972 143.999 195.933 143.92 195.942 143.821C195.952 143.721 196.011 143.601 196.121 143.463L199.759 138.796L197.537 125.693C197.517 125.573 197.502 125.464 197.493 125.364C197.482 125.266 197.477 125.181 197.477 125.111C197.477 125.001 197.496 124.91 197.529 124.834C197.564 124.761 197.632 124.701 197.731 124.656C197.831 124.613 197.963 124.581 198.126 124.566C198.291 124.553 198.491 124.545 198.729 124.545C198.999 124.545 199.209 124.553 199.364 124.566C199.517 124.581 199.637 124.608 199.721 124.641C199.806 124.676 199.865 124.729 199.9 124.798C199.935 124.868 199.957 124.953 199.967 125.051L201.712 135.993H201.742C202.357 135.129 202.914 134.25 203.412 133.355C203.908 132.46 204.365 131.554 204.782 130.634C205.2 129.715 205.585 128.786 205.938 127.847C206.29 126.907 206.621 125.956 206.93 124.991C206.948 124.913 206.986 124.846 207.041 124.791C207.095 124.736 207.175 124.689 207.28 124.649C207.385 124.61 207.525 124.581 207.705 124.566C207.883 124.553 208.107 124.545 208.375 124.545C208.823 124.545 209.121 124.574 209.27 124.634C209.418 124.694 209.493 124.783 209.493 124.903Z" fill="#8240DF"/>
<path d="M221.241 129.598C221.241 129.102 221.189 128.654 221.084 128.257C220.981 127.858 220.806 127.525 220.563 127.25C220.319 126.976 220.001 126.767 219.609 126.616C219.216 126.468 218.741 126.393 218.184 126.393C217.589 126.393 217.046 126.5 216.56 126.714C216.073 126.928 215.638 127.215 215.256 127.578C214.873 127.942 214.54 128.367 214.257 128.853C213.973 129.34 213.739 129.859 213.556 130.411C213.372 130.963 213.235 131.529 213.146 132.111C213.057 132.691 213.011 133.26 213.011 133.818C213.011 134.314 213.066 134.763 213.176 135.159C213.285 135.556 213.461 135.895 213.705 136.172C213.948 136.451 214.264 136.664 214.651 136.814C215.039 136.962 215.511 137.038 216.068 137.038C216.674 137.038 217.218 136.931 217.701 136.717C218.182 136.504 218.615 136.213 218.997 135.846C219.379 135.478 219.712 135.049 219.996 134.562C220.279 134.076 220.513 133.554 220.697 132.998C220.88 132.441 221.017 131.874 221.107 131.298C221.196 130.721 221.241 130.155 221.241 129.598ZM223.835 129.45C223.835 130.185 223.765 130.935 223.627 131.701C223.487 132.466 223.276 133.205 222.992 133.914C222.709 134.624 222.349 135.292 221.912 135.919C221.474 136.545 220.96 137.093 220.369 137.559C219.777 138.026 219.106 138.397 218.356 138.669C217.606 138.942 216.768 139.079 215.844 139.079C214.89 139.079 214.073 138.966 213.392 138.737C212.711 138.507 212.152 138.176 211.715 137.737C211.278 137.301 210.955 136.764 210.745 136.127C210.537 135.492 210.433 134.771 210.433 133.966C210.433 133.231 210.5 132.481 210.635 131.716C210.768 130.95 210.98 130.215 211.268 129.51C211.555 128.803 211.917 128.135 212.348 127.503C212.781 126.873 213.293 126.323 213.883 125.857C214.475 125.39 215.146 125.02 215.896 124.745C216.646 124.473 217.484 124.335 218.409 124.335C219.363 124.335 220.179 124.453 220.861 124.687C221.542 124.92 222.102 125.256 222.545 125.693C222.987 126.13 223.314 126.666 223.522 127.303C223.731 127.938 223.835 128.654 223.835 129.45Z" fill="#8240DF"/>
<path d="M237.043 138.424C237.033 138.502 237.004 138.572 236.954 138.632C236.904 138.692 236.835 138.739 236.746 138.774C236.656 138.809 236.539 138.836 236.394 138.856C236.251 138.875 236.075 138.885 235.866 138.885C235.668 138.885 235.501 138.875 235.366 138.856C235.231 138.836 235.128 138.809 235.053 138.774C234.978 138.739 234.929 138.692 234.904 138.632C234.879 138.572 234.876 138.502 234.896 138.424L235.388 135.905C235.229 136.242 234.978 136.597 234.636 136.97C234.293 137.343 233.89 137.689 233.428 138.006C232.967 138.324 232.46 138.582 231.908 138.782C231.357 138.98 230.797 139.079 230.23 139.079C229.555 139.079 228.985 138.987 228.524 138.804C228.062 138.62 227.689 138.367 227.406 138.043C227.122 137.721 226.918 137.338 226.794 136.895C226.67 136.454 226.607 135.969 226.607 135.442C226.607 135.114 226.631 134.779 226.675 134.436C226.72 134.092 226.777 133.748 226.847 133.4L228.502 124.992C228.522 124.922 228.555 124.858 228.605 124.798C228.655 124.739 228.732 124.689 228.837 124.648C228.942 124.61 229.075 124.582 229.239 124.567C229.403 124.552 229.605 124.545 229.843 124.545C230.082 124.545 230.278 124.552 230.432 124.567C230.585 124.582 230.705 124.61 230.79 124.648C230.873 124.689 230.928 124.739 230.953 124.798C230.978 124.858 230.985 124.922 230.975 124.992L229.335 133.309C229.277 133.569 229.232 133.837 229.202 134.116C229.172 134.394 229.157 134.677 229.157 134.966C229.157 135.264 229.185 135.534 229.239 135.777C229.293 136.021 229.388 136.232 229.522 136.411C229.657 136.59 229.83 136.73 230.045 136.829C230.258 136.928 230.519 136.978 230.827 136.978C231.354 136.978 231.893 136.826 232.445 136.523C232.996 136.219 233.51 135.801 233.988 135.264C234.465 134.726 234.889 134.088 235.261 133.348C235.635 132.608 235.911 131.8 236.089 130.924L237.268 124.992C237.276 124.922 237.309 124.858 237.364 124.798C237.419 124.739 237.498 124.689 237.603 124.648C237.706 124.61 237.841 124.582 238.004 124.567C238.169 124.552 238.369 124.545 238.609 124.545C238.847 124.545 239.044 124.552 239.198 124.567C239.351 124.582 239.471 124.61 239.556 124.648C239.639 124.689 239.694 124.739 239.719 124.798C239.744 124.858 239.752 124.922 239.742 124.992L237.043 138.424Z" fill="#8240DF"/>
<path d="M254.828 120.49C254.779 120.768 254.711 121.001 254.626 121.19C254.543 121.38 254.431 121.531 254.291 121.645C254.153 121.76 253.978 121.841 253.77 121.891C253.561 121.941 253.308 121.966 253.01 121.966C252.721 121.966 252.483 121.941 252.294 121.891C252.105 121.841 251.966 121.76 251.876 121.645C251.788 121.531 251.738 121.38 251.728 121.19C251.718 121.001 251.738 120.768 251.788 120.49C251.846 120.211 251.921 119.98 252.011 119.796C252.1 119.613 252.211 119.459 252.346 119.334C252.48 119.21 252.651 119.125 252.861 119.081C253.069 119.036 253.323 119.013 253.621 119.013C253.909 119.013 254.145 119.036 254.329 119.081C254.513 119.125 254.651 119.21 254.746 119.334C254.841 119.459 254.893 119.613 254.903 119.796C254.912 119.98 254.888 120.211 254.828 120.49ZM250.968 138.424C250.948 138.503 250.913 138.57 250.863 138.625C250.813 138.68 250.738 138.727 250.64 138.767C250.54 138.806 250.408 138.837 250.245 138.856C250.08 138.876 249.878 138.885 249.64 138.885C249.392 138.885 249.19 138.876 249.037 138.856C248.883 138.837 248.763 138.806 248.678 138.767C248.595 138.727 248.54 138.68 248.515 138.625C248.49 138.57 248.487 138.503 248.507 138.424L251.176 125.006C251.186 124.937 251.216 124.873 251.265 124.813C251.315 124.753 251.39 124.704 251.488 124.665C251.588 124.624 251.72 124.595 251.883 124.574C252.048 124.555 252.255 124.545 252.503 124.545C252.741 124.545 252.937 124.555 253.091 124.574C253.246 124.595 253.365 124.624 253.45 124.665C253.534 124.704 253.588 124.753 253.613 124.813C253.638 124.873 253.646 124.937 253.636 125.006L250.968 138.424Z" fill="#8240DF"/>
<path d="M268.618 127.973C268.618 128.321 268.599 128.665 268.559 129.001C268.519 129.34 268.464 129.688 268.394 130.046L266.71 138.424C266.691 138.503 266.658 138.57 266.613 138.625C266.568 138.68 266.494 138.727 266.389 138.767C266.286 138.805 266.153 138.837 265.995 138.855C265.836 138.875 265.632 138.885 265.383 138.885C265.145 138.885 264.948 138.875 264.795 138.855C264.64 138.837 264.521 138.805 264.437 138.767C264.353 138.727 264.298 138.68 264.273 138.625C264.248 138.57 264.24 138.503 264.25 138.424L265.905 130.134C265.974 129.826 266.023 129.529 266.047 129.241C266.071 128.952 266.084 128.699 266.084 128.479C266.084 127.874 265.955 127.384 265.696 127.013C265.438 126.64 265.006 126.452 264.4 126.452C263.873 126.452 263.333 126.604 262.782 126.908C262.23 127.211 261.718 127.628 261.246 128.159C260.775 128.691 260.352 129.323 259.98 130.053C259.607 130.784 259.335 131.576 259.167 132.431L257.974 138.424C257.954 138.503 257.92 138.57 257.87 138.625C257.82 138.68 257.745 138.727 257.647 138.767C257.547 138.805 257.415 138.837 257.252 138.855C257.087 138.875 256.885 138.885 256.647 138.885C256.399 138.885 256.197 138.875 256.044 138.855C255.889 138.837 255.77 138.805 255.686 138.767C255.602 138.727 255.547 138.68 255.522 138.625C255.497 138.57 255.494 138.503 255.514 138.424L258.212 124.991C258.222 124.923 258.25 124.858 258.295 124.798C258.339 124.738 258.409 124.688 258.503 124.648C258.597 124.61 258.717 124.581 258.86 124.567C259.005 124.552 259.177 124.545 259.375 124.545C259.584 124.545 259.755 124.552 259.89 124.567C260.024 124.581 260.129 124.61 260.203 124.648C260.277 124.688 260.325 124.738 260.345 124.798C260.365 124.858 260.37 124.923 260.36 124.991L259.852 127.556C260.002 127.218 260.245 126.859 260.583 126.483C260.92 126.105 261.323 125.758 261.79 125.44C262.258 125.121 262.772 124.858 263.333 124.648C263.895 124.44 264.478 124.336 265.085 124.336C265.751 124.336 266.308 124.438 266.755 124.641C267.202 124.845 267.565 125.113 267.843 125.447C268.121 125.779 268.321 126.165 268.439 126.601C268.559 127.039 268.618 127.496 268.618 127.973Z" fill="#8240DF"/>
<path d="M288.416 127.974C288.416 127.466 288.217 127.058 287.819 126.743C287.422 126.431 286.855 126.274 286.119 126.274C285.474 126.274 284.903 126.386 284.405 126.609C283.909 126.833 283.469 127.134 283.086 127.511C282.703 127.89 282.376 128.329 282.103 128.83C281.829 129.333 281.608 129.863 281.438 130.419H282.959C284.003 130.419 284.874 130.354 285.576 130.225C286.276 130.096 286.837 129.919 287.26 129.696C287.682 129.471 287.98 129.211 288.154 128.913C288.329 128.615 288.416 128.301 288.416 127.974ZM290.935 127.749C290.935 128.436 290.777 129.051 290.459 129.599C290.14 130.144 289.642 130.612 288.967 131.001C288.29 131.387 287.427 131.686 286.372 131.894C285.321 132.102 284.058 132.207 282.586 132.207H281.006C280.937 132.535 280.889 132.854 280.864 133.162C280.839 133.469 280.828 133.758 280.828 134.025C280.828 135.02 281.073 135.781 281.566 136.307C282.057 136.833 282.854 137.097 283.958 137.097C284.594 137.097 285.166 137.05 285.673 136.955C286.179 136.862 286.619 136.759 286.992 136.65C287.364 136.54 287.67 136.439 287.909 136.344C288.147 136.25 288.311 136.204 288.4 136.204C288.491 136.204 288.557 136.235 288.602 136.3C288.647 136.363 288.669 136.457 288.669 136.575C288.669 136.675 288.659 136.794 288.639 136.933C288.619 137.072 288.589 137.214 288.55 137.358C288.51 137.502 288.457 137.639 288.392 137.768C288.329 137.897 288.257 138.007 288.178 138.095C288.058 138.215 287.847 138.332 287.544 138.446C287.241 138.56 286.881 138.665 286.463 138.758C286.046 138.853 285.587 138.93 285.091 138.99C284.594 139.05 284.097 139.08 283.601 139.08C282.716 139.08 281.941 138.98 281.275 138.782C280.608 138.583 280.055 138.277 279.613 137.865C279.17 137.452 278.839 136.938 278.621 136.322C278.403 135.705 278.293 134.98 278.293 134.145C278.293 133.499 278.355 132.806 278.48 132.065C278.603 131.325 278.8 130.593 279.068 129.868C279.336 129.141 279.685 128.446 280.111 127.78C280.539 127.115 281.048 126.528 281.64 126.021C282.231 125.513 282.915 125.106 283.689 124.798C284.464 124.49 285.339 124.336 286.314 124.336C287.147 124.336 287.857 124.44 288.439 124.649C289.019 124.858 289.497 125.126 289.869 125.455C290.242 125.781 290.514 126.147 290.681 126.549C290.85 126.953 290.935 127.353 290.935 127.749Z" fill="#8240DF"/>
<path d="M299.404 131.581L302.326 138.141C302.386 138.279 302.408 138.396 302.393 138.491C302.379 138.586 302.317 138.663 302.207 138.722C302.097 138.781 301.945 138.824 301.752 138.849C301.559 138.874 301.307 138.885 300.999 138.885C300.721 138.885 300.502 138.877 300.344 138.864C300.184 138.849 300.06 138.824 299.97 138.789C299.881 138.754 299.822 138.71 299.792 138.655C299.762 138.601 299.732 138.538 299.702 138.469L297.465 133.176L293.248 138.469C293.188 138.538 293.126 138.601 293.061 138.655C292.996 138.71 292.904 138.751 292.784 138.781C292.666 138.811 292.515 138.836 292.33 138.856C292.146 138.876 291.904 138.885 291.606 138.885C291.32 138.885 291.085 138.874 290.907 138.849C290.728 138.824 290.597 138.781 290.511 138.722C290.427 138.663 290.393 138.588 290.406 138.498C290.422 138.409 290.48 138.295 290.578 138.154L296.155 131.537L293.396 125.275C293.336 125.136 293.311 125.019 293.321 124.925C293.331 124.83 293.383 124.753 293.478 124.694C293.572 124.634 293.715 124.596 293.903 124.574C294.091 124.554 294.341 124.545 294.648 124.545C294.926 124.545 295.146 124.552 295.304 124.567C295.463 124.582 295.586 124.604 295.669 124.634C295.754 124.664 295.814 124.703 295.847 124.753C295.883 124.804 295.916 124.862 295.946 124.932L298.078 129.942L302.102 124.932C302.162 124.872 302.222 124.817 302.282 124.768C302.34 124.719 302.425 124.677 302.535 124.642C302.644 124.607 302.78 124.582 302.945 124.567C303.109 124.552 303.325 124.545 303.593 124.545C303.892 124.545 304.135 124.554 304.323 124.574C304.512 124.596 304.652 124.629 304.74 124.679C304.83 124.729 304.868 124.801 304.853 124.895C304.838 124.989 304.765 125.107 304.636 125.245L299.404 131.581Z" fill="#8240DF"/>
<path d="M315.265 128.51C314.798 127.823 314.293 127.31 313.751 126.967C313.21 126.623 312.601 126.453 311.925 126.453C311.389 126.453 310.905 126.58 310.472 126.833C310.04 127.086 309.657 127.422 309.323 127.84C308.992 128.257 308.702 128.732 308.459 129.263C308.216 129.794 308.017 130.344 307.864 130.91C307.709 131.477 307.595 132.033 307.52 132.58C307.446 133.126 307.408 133.618 307.408 134.056C307.408 134.403 307.436 134.749 307.491 135.091C307.546 135.435 307.649 135.748 307.804 136.031C307.957 136.314 308.169 136.542 308.437 136.716C308.705 136.891 309.054 136.978 309.48 136.978C310.027 136.978 310.576 136.826 311.129 136.523C311.68 136.22 312.193 135.8 312.67 135.263C313.148 134.726 313.57 134.094 313.939 133.369C314.306 132.644 314.578 131.845 314.758 130.97L315.265 128.51ZM315.727 138.424C315.688 138.593 315.578 138.713 315.398 138.781C315.22 138.851 314.922 138.885 314.505 138.885C314.306 138.885 314.142 138.875 314.013 138.856C313.884 138.836 313.78 138.809 313.7 138.774C313.62 138.739 313.565 138.694 313.535 138.639C313.505 138.586 313.505 138.512 313.535 138.424L314.028 135.889C313.898 136.208 313.665 136.556 313.326 136.933C312.989 137.311 312.589 137.659 312.126 137.976C311.665 138.295 311.15 138.558 310.583 138.766C310.017 138.975 309.44 139.079 308.854 139.079C308.059 139.079 307.4 138.94 306.879 138.662C306.358 138.384 305.943 138.016 305.634 137.559C305.325 137.103 305.114 136.584 305.001 136.009C304.886 135.433 304.829 134.841 304.829 134.235C304.829 133.677 304.881 133.048 304.986 132.341C305.091 131.636 305.259 130.915 305.492 130.18C305.726 129.445 306.029 128.729 306.403 128.033C306.776 127.337 307.224 126.714 307.752 126.162C308.279 125.61 308.889 125.168 309.585 124.835C310.28 124.502 311.07 124.335 311.955 124.335C312.84 124.335 313.598 124.515 314.228 124.872C314.86 125.23 315.423 125.722 315.921 126.349L316.204 124.992C316.243 124.834 316.358 124.719 316.546 124.648C316.736 124.579 317.029 124.545 317.426 124.545C317.625 124.545 317.791 124.552 317.926 124.567C318.06 124.582 318.166 124.609 318.247 124.648C318.326 124.689 318.376 124.739 318.396 124.798C318.414 124.857 318.419 124.922 318.409 124.992L315.727 138.424Z" fill="#8240DF"/>
<path d="M339.938 138.424C339.928 138.502 339.898 138.57 339.848 138.624C339.798 138.679 339.721 138.727 339.618 138.766C339.513 138.806 339.38 138.836 339.215 138.856C339.051 138.875 338.85 138.885 338.612 138.885C338.373 138.885 338.176 138.875 338.022 138.856C337.868 138.836 337.748 138.806 337.665 138.766C337.579 138.727 337.524 138.679 337.493 138.624C337.464 138.57 337.458 138.502 337.478 138.424L339.133 130.135C339.183 129.846 339.225 129.573 339.26 129.314C339.294 129.056 339.311 128.798 339.311 128.539C339.311 127.904 339.189 127.396 338.946 127.02C338.703 126.642 338.278 126.453 337.672 126.453C337.175 126.453 336.66 126.605 336.128 126.907C335.597 127.21 335.092 127.628 334.615 128.16C334.139 128.691 333.717 129.323 333.349 130.053C332.98 130.783 332.712 131.576 332.543 132.431L331.35 138.424C331.331 138.502 331.295 138.57 331.247 138.624C331.197 138.679 331.119 138.727 331.016 138.766C330.911 138.806 330.777 138.836 330.614 138.856C330.449 138.875 330.248 138.885 330.009 138.885C329.771 138.885 329.574 138.875 329.421 138.856C329.266 138.836 329.149 138.806 329.069 138.766C328.991 138.727 328.936 138.679 328.905 138.624C328.876 138.57 328.866 138.502 328.876 138.424L330.531 130.135C330.601 129.836 330.647 129.543 330.672 129.255C330.697 128.967 330.711 128.698 330.711 128.45C330.711 127.845 330.585 127.36 330.337 126.997C330.089 126.635 329.666 126.453 329.069 126.453C328.563 126.453 328.046 126.605 327.519 126.907C326.992 127.21 326.491 127.628 326.014 128.16C325.536 128.691 325.114 129.323 324.747 130.053C324.38 130.783 324.111 131.576 323.941 132.431L322.748 138.424C322.729 138.502 322.694 138.57 322.645 138.624C322.595 138.679 322.519 138.727 322.421 138.766C322.321 138.806 322.19 138.836 322.026 138.856C321.862 138.875 321.661 138.885 321.422 138.885C321.174 138.885 320.974 138.875 320.819 138.856C320.665 138.836 320.545 138.806 320.462 138.766C320.377 138.727 320.322 138.679 320.297 138.624C320.272 138.57 320.27 138.502 320.29 138.424L322.987 124.992C322.996 124.922 323.025 124.857 323.07 124.798C323.114 124.739 323.185 124.689 323.278 124.648C323.373 124.609 323.492 124.582 323.636 124.567C323.779 124.552 323.951 124.545 324.151 124.545C324.359 124.545 324.531 124.552 324.664 124.567C324.8 124.582 324.903 124.609 324.978 124.648C325.053 124.689 325.1 124.739 325.119 124.798C325.139 124.857 325.144 124.922 325.134 124.992L324.628 127.555C324.776 127.218 325.022 126.86 325.366 126.482C325.708 126.105 326.107 125.757 326.566 125.439C327.023 125.12 327.522 124.857 328.064 124.648C328.605 124.44 329.16 124.335 329.726 124.335C330.322 124.335 330.834 124.418 331.262 124.582C331.689 124.745 332.039 124.97 332.312 125.252C332.586 125.535 332.787 125.874 332.915 126.266C333.045 126.659 333.125 127.088 333.155 127.555C333.354 127.208 333.627 126.845 333.975 126.468C334.322 126.09 334.725 125.745 335.182 125.431C335.64 125.118 336.136 124.857 336.673 124.648C337.21 124.44 337.756 124.335 338.313 124.335C338.978 124.335 339.535 124.43 339.983 124.619C340.43 124.808 340.793 125.066 341.071 125.395C341.349 125.722 341.548 126.105 341.668 126.542C341.786 126.978 341.846 127.456 341.846 127.973C341.846 128.322 341.826 128.665 341.786 129.001C341.746 129.34 341.691 129.688 341.623 130.045L339.938 138.424Z" fill="#8240DF"/>
<path d="M357.946 120.49C357.887 120.768 357.814 121.001 357.729 121.19C357.646 121.38 357.536 121.531 357.402 121.645C357.267 121.76 357.098 121.841 356.895 121.891C356.691 121.941 356.441 121.966 356.143 121.966C355.854 121.966 355.618 121.941 355.434 121.891C355.249 121.841 355.109 121.76 355.01 121.645C354.909 121.531 354.857 121.38 354.853 121.19C354.848 121.001 354.869 120.768 354.919 120.49C354.979 120.211 355.049 119.98 355.129 119.796C355.208 119.613 355.321 119.459 355.464 119.334C355.607 119.21 355.779 119.125 355.979 119.081C356.177 119.036 356.425 119.013 356.724 119.013C357.022 119.013 357.265 119.036 357.453 119.081C357.642 119.125 357.782 119.21 357.87 119.334C357.961 119.459 358.011 119.613 358.021 119.796C358.03 119.98 358.006 120.211 357.946 120.49ZM353.876 139.303C353.727 140.078 353.533 140.771 353.295 141.383C353.056 141.994 352.748 142.511 352.369 142.933C351.993 143.356 351.534 143.678 350.999 143.902C350.461 144.126 349.826 144.238 349.092 144.238C348.683 144.238 348.343 144.208 348.069 144.148C347.796 144.09 347.625 144.03 347.555 143.97C347.515 143.92 347.485 143.865 347.465 143.806C347.446 143.746 347.436 143.666 347.436 143.568C347.436 143.518 347.443 143.445 347.458 143.351C347.473 143.256 347.49 143.155 347.51 143.045C347.532 142.936 347.555 142.821 347.585 142.701C347.615 142.583 347.655 142.476 347.703 142.381C347.753 142.286 347.808 142.21 347.868 142.151C347.928 142.091 347.993 142.062 348.061 142.062C348.132 142.062 348.192 142.066 348.241 142.076C348.29 142.086 348.345 142.093 348.405 142.098C348.465 142.103 348.541 142.111 348.636 142.121C348.73 142.131 348.853 142.136 349.001 142.136C349.33 142.136 349.623 142.088 349.881 141.994C350.139 141.9 350.365 141.738 350.559 141.509C350.753 141.281 350.919 140.982 351.058 140.614C351.198 140.248 351.323 139.795 351.431 139.259L354.279 125.006C354.299 124.937 354.333 124.873 354.383 124.813C354.433 124.753 354.509 124.704 354.614 124.665C354.719 124.624 354.853 124.595 355.016 124.574C355.18 124.555 355.382 124.545 355.621 124.545C355.849 124.545 356.043 124.555 356.203 124.574C356.361 124.595 356.482 124.624 356.568 124.665C356.651 124.704 356.706 124.753 356.73 124.813C356.756 124.873 356.764 124.937 356.754 125.006L353.876 139.303Z" fill="#8240DF"/>
<path d="M369.648 129.598C369.648 129.102 369.596 128.654 369.493 128.257C369.388 127.858 369.214 127.525 368.971 127.25C368.728 126.976 368.408 126.767 368.016 126.616C367.623 126.468 367.149 126.393 366.593 126.393C365.996 126.393 365.455 126.5 364.968 126.714C364.482 126.928 364.045 127.215 363.663 127.578C363.281 127.942 362.947 128.367 362.665 128.853C362.382 129.34 362.147 129.859 361.964 130.411C361.781 130.963 361.643 131.529 361.554 132.111C361.464 132.691 361.42 133.26 361.42 133.818C361.42 134.314 361.473 134.763 361.583 135.159C361.692 135.556 361.869 135.895 362.112 136.172C362.355 136.451 362.672 136.664 363.06 136.814C363.447 136.962 363.918 137.038 364.477 137.038C365.082 137.038 365.626 136.931 366.108 136.717C366.59 136.504 367.023 136.213 367.405 135.846C367.788 135.478 368.121 135.049 368.403 134.562C368.688 134.076 368.921 133.554 369.104 132.998C369.288 132.441 369.425 131.874 369.515 131.298C369.605 130.721 369.648 130.155 369.648 129.598ZM372.243 129.45C372.243 130.185 372.172 130.935 372.034 131.701C371.895 132.466 371.684 133.205 371.401 133.914C371.118 134.624 370.758 135.292 370.319 135.919C369.882 136.545 369.367 137.093 368.777 137.559C368.185 138.026 367.515 138.397 366.765 138.669C366.013 138.942 365.176 139.079 364.252 139.079C363.298 139.079 362.48 138.966 361.8 138.737C361.119 138.507 360.56 138.176 360.122 137.737C359.685 137.301 359.362 136.764 359.154 136.127C358.945 135.492 358.84 134.771 358.84 133.966C358.84 133.231 358.908 132.481 359.042 131.716C359.176 130.95 359.387 130.215 359.675 129.51C359.964 128.803 360.324 128.135 360.757 127.503C361.189 126.873 361.7 126.323 362.292 125.857C362.883 125.39 363.553 125.02 364.305 124.745C365.054 124.473 365.891 124.335 366.817 124.335C367.77 124.335 368.587 124.453 369.268 124.687C369.949 124.92 370.511 125.256 370.953 125.693C371.394 126.13 371.721 126.666 371.929 127.303C372.138 127.938 372.243 128.654 372.243 129.45Z" fill="#8240DF"/>
<path d="M385.453 138.424C385.441 138.502 385.413 138.572 385.363 138.632C385.313 138.692 385.243 138.739 385.155 138.774C385.064 138.809 384.948 138.836 384.803 138.856C384.659 138.875 384.483 138.885 384.275 138.885C384.076 138.885 383.91 138.875 383.774 138.856C383.641 138.836 383.536 138.809 383.461 138.774C383.388 138.739 383.338 138.692 383.313 138.632C383.288 138.572 383.285 138.502 383.305 138.424L383.798 135.905C383.638 136.242 383.388 136.597 383.044 136.97C382.702 137.343 382.3 137.689 381.837 138.006C381.375 138.324 380.868 138.582 380.317 138.782C379.765 138.98 379.205 139.079 378.639 139.079C377.963 139.079 377.394 138.987 376.932 138.804C376.47 138.62 376.097 138.367 375.814 138.043C375.531 137.721 375.327 137.338 375.202 136.895C375.079 136.454 375.017 135.969 375.017 135.442C375.017 135.114 375.039 134.779 375.084 134.436C375.129 134.092 375.186 133.748 375.255 133.4L376.911 124.992C376.93 124.922 376.963 124.858 377.014 124.798C377.064 124.739 377.14 124.689 377.245 124.648C377.35 124.61 377.483 124.582 377.647 124.567C377.812 124.552 378.013 124.545 378.252 124.545C378.49 124.545 378.686 124.552 378.84 124.567C378.993 124.582 379.113 124.61 379.198 124.648C379.282 124.689 379.337 124.739 379.362 124.798C379.387 124.858 379.395 124.922 379.385 124.992L377.745 133.309C377.686 133.569 377.64 133.837 377.61 134.116C377.581 134.394 377.566 134.677 377.566 134.966C377.566 135.264 377.593 135.534 377.647 135.777C377.702 136.021 377.796 136.232 377.932 136.411C378.065 136.59 378.239 136.73 378.452 136.829C378.667 136.928 378.927 136.978 379.236 136.978C379.762 136.978 380.301 136.826 380.854 136.523C381.405 136.219 381.918 135.801 382.396 135.264C382.873 134.726 383.298 134.088 383.67 133.348C384.043 132.608 384.32 131.8 384.498 130.924L385.676 124.992C385.686 124.922 385.718 124.858 385.773 124.798C385.828 124.739 385.906 124.689 386.011 124.648C386.116 124.61 386.25 124.582 386.413 124.567C386.577 124.552 386.779 124.545 387.018 124.545C387.256 124.545 387.452 124.552 387.607 124.567C387.761 124.582 387.879 124.61 387.965 124.648C388.049 124.689 388.103 124.739 388.127 124.798C388.153 124.858 388.161 124.922 388.151 124.992L385.453 138.424Z" fill="#8240DF"/>
<path d="M400.284 125.022C400.284 125.061 400.276 125.139 400.261 125.253C400.246 125.366 400.229 125.499 400.209 125.648C400.189 125.797 400.159 125.951 400.119 126.11C400.081 126.268 400.031 126.415 399.971 126.55C399.911 126.683 399.849 126.796 399.785 126.885C399.719 126.974 399.647 127.02 399.568 127.02C399.489 127.02 399.401 127.002 399.308 126.968C399.213 126.933 399.109 126.89 398.994 126.84C398.881 126.791 398.748 126.749 398.599 126.713C398.449 126.678 398.276 126.661 398.077 126.661C397.739 126.661 397.35 126.809 396.908 127.101C396.465 127.394 396.03 127.8 395.603 128.317C395.175 128.833 394.785 129.445 394.433 130.149C394.079 130.856 393.82 131.621 393.65 132.446L392.471 138.424C392.452 138.503 392.418 138.57 392.368 138.625C392.318 138.68 392.243 138.727 392.145 138.767C392.045 138.807 391.913 138.837 391.748 138.856C391.586 138.875 391.383 138.885 391.145 138.885C390.897 138.885 390.697 138.875 390.542 138.856C390.387 138.837 390.268 138.807 390.184 138.767C390.1 138.727 390.045 138.68 390.02 138.625C389.995 138.57 389.992 138.503 390.012 138.424L392.681 124.992C392.69 124.922 392.72 124.858 392.77 124.798C392.82 124.738 392.894 124.688 392.993 124.648C393.093 124.61 393.215 124.581 393.358 124.567C393.503 124.552 393.674 124.545 393.873 124.545C394.081 124.545 394.253 124.552 394.388 124.567C394.522 124.581 394.626 124.61 394.702 124.648C394.775 124.688 394.823 124.738 394.843 124.798C394.861 124.858 394.866 124.922 394.858 124.992L394.365 127.436C394.595 127.029 394.864 126.637 395.178 126.258C395.491 125.881 395.831 125.551 396.2 125.268C396.568 124.985 396.951 124.758 397.354 124.588C397.758 124.421 398.152 124.336 398.54 124.336C398.709 124.336 398.881 124.348 399.054 124.373C399.227 124.398 399.389 124.428 399.539 124.463C399.687 124.498 399.819 124.536 399.934 124.581C400.048 124.627 400.136 124.679 400.195 124.738C400.255 124.798 400.284 124.893 400.284 125.022Z" fill="#8240DF"/>
<path d="M413.581 127.973C413.581 128.321 413.561 128.665 413.522 129.001C413.483 129.34 413.428 129.688 413.358 130.046L411.675 138.424C411.653 138.503 411.622 138.57 411.577 138.625C411.531 138.68 411.458 138.727 411.353 138.767C411.248 138.805 411.116 138.837 410.959 138.855C410.8 138.875 410.595 138.885 410.346 138.885C410.108 138.885 409.912 138.875 409.758 138.855C409.605 138.837 409.485 138.805 409.4 138.767C409.316 138.727 409.261 138.68 409.237 138.625C409.211 138.57 409.203 138.503 409.213 138.424L410.868 130.134C410.938 129.826 410.986 129.529 411.01 129.241C411.035 128.952 411.048 128.699 411.048 128.479C411.048 127.874 410.918 127.384 410.66 127.013C410.401 126.64 409.97 126.452 409.363 126.452C408.836 126.452 408.297 126.604 407.745 126.908C407.194 127.211 406.682 127.628 406.21 128.159C405.738 128.691 405.315 129.323 404.942 130.053C404.571 130.784 404.299 131.576 404.13 132.431L402.937 138.424C402.917 138.503 402.882 138.57 402.834 138.625C402.784 138.68 402.708 138.727 402.61 138.767C402.51 138.805 402.379 138.837 402.214 138.855C402.051 138.875 401.849 138.885 401.611 138.885C401.362 138.885 401.161 138.875 401.007 138.855C400.852 138.837 400.733 138.805 400.649 138.767C400.566 138.727 400.511 138.68 400.485 138.625C400.461 138.57 400.459 138.503 400.477 138.424L403.175 124.991C403.185 124.923 403.214 124.858 403.259 124.798C403.302 124.738 403.373 124.688 403.467 124.648C403.562 124.61 403.681 124.581 403.825 124.567C403.968 124.552 404.14 124.545 404.339 124.545C404.547 124.545 404.719 124.552 404.853 124.567C404.987 124.581 405.092 124.61 405.167 124.648C405.242 124.688 405.289 124.738 405.308 124.798C405.328 124.858 405.333 124.923 405.323 124.991L404.817 127.556C404.965 127.218 405.208 126.859 405.547 126.483C405.885 126.105 406.286 125.758 406.753 125.44C407.221 125.121 407.737 124.858 408.297 124.648C408.858 124.44 409.443 124.336 410.048 124.336C410.714 124.336 411.271 124.438 411.718 124.641C412.166 124.845 412.528 125.113 412.806 125.447C413.085 125.779 413.284 126.165 413.402 126.601C413.522 127.039 413.581 127.496 413.581 127.973Z" fill="#8240DF"/>
<path d="M426.479 127.974C426.479 127.466 426.279 127.058 425.882 126.743C425.484 126.431 424.917 126.274 424.182 126.274C423.536 126.274 422.966 126.386 422.467 126.609C421.971 126.833 421.531 127.134 421.149 127.511C420.766 127.89 420.437 128.329 420.165 128.83C419.891 129.333 419.67 129.863 419.501 130.419H421.021C422.066 130.419 422.937 130.354 423.638 130.225C424.339 130.096 424.9 129.919 425.322 129.696C425.745 129.471 426.042 129.211 426.217 128.913C426.391 128.615 426.479 128.301 426.479 127.974ZM428.997 127.749C428.997 128.436 428.839 129.051 428.521 129.599C428.202 130.144 427.705 130.612 427.03 131.001C426.353 131.387 425.489 131.686 424.435 131.894C423.383 132.102 422.121 132.207 420.649 132.207H419.07C418.999 132.535 418.953 132.854 418.926 133.162C418.903 133.469 418.89 133.758 418.89 134.025C418.89 135.02 419.136 135.781 419.628 136.307C420.119 136.833 420.918 137.097 422.021 137.097C422.656 137.097 423.228 137.05 423.736 136.955C424.242 136.862 424.682 136.759 425.054 136.65C425.427 136.54 425.732 136.439 425.971 136.344C426.209 136.25 426.374 136.204 426.462 136.204C426.553 136.204 426.619 136.235 426.664 136.3C426.709 136.363 426.732 136.457 426.732 136.575C426.732 136.675 426.722 136.794 426.702 136.933C426.682 137.072 426.652 137.214 426.612 137.358C426.572 137.502 426.52 137.639 426.455 137.768C426.391 137.897 426.319 138.007 426.241 138.095C426.121 138.215 425.909 138.332 425.606 138.446C425.303 138.56 424.943 138.665 424.526 138.758C424.108 138.853 423.65 138.93 423.154 138.99C422.656 139.05 422.159 139.08 421.663 139.08C420.778 139.08 420.003 138.98 419.338 138.782C418.671 138.583 418.118 138.277 417.675 137.865C417.233 137.452 416.901 136.938 416.684 136.322C416.465 135.705 416.355 134.98 416.355 134.145C416.355 133.499 416.418 132.806 416.541 132.065C416.666 131.325 416.863 130.593 417.131 129.868C417.4 129.141 417.746 128.446 418.175 127.78C418.602 127.115 419.111 126.528 419.703 126.021C420.294 125.513 420.978 125.106 421.752 124.798C422.527 124.49 423.402 124.336 424.376 124.336C425.21 124.336 425.919 124.44 426.501 124.649C427.082 124.858 427.559 125.126 427.932 125.455C428.304 125.781 428.576 126.147 428.743 126.549C428.913 126.953 428.997 127.353 428.997 127.749Z" fill="#8240DF"/>
<path d="M443.473 124.903C443.473 125.013 443.463 125.124 443.444 125.238C443.423 125.352 443.39 125.459 443.34 125.558C443.011 126.463 442.653 127.405 442.265 128.384C441.879 129.362 441.425 130.385 440.908 131.454C440.392 132.522 439.788 133.639 439.097 134.8C438.407 135.964 437.585 137.186 436.631 138.469L432.769 143.731C432.709 143.811 432.636 143.88 432.545 143.939C432.456 143.999 432.347 144.051 432.218 144.096C432.089 144.141 431.932 144.173 431.748 144.193C431.564 144.213 431.348 144.223 431.099 144.223C430.831 144.223 430.611 144.209 430.436 144.186C430.262 144.161 430.131 144.118 430.041 144.059C429.951 143.999 429.911 143.92 429.921 143.821C429.933 143.721 429.992 143.601 430.101 143.463L433.737 138.796L431.517 125.693C431.498 125.573 431.482 125.464 431.472 125.364C431.462 125.266 431.457 125.181 431.457 125.111C431.457 125.001 431.474 124.91 431.509 124.834C431.545 124.761 431.611 124.701 431.711 124.656C431.811 124.613 431.942 124.581 432.106 124.566C432.271 124.553 432.471 124.545 432.709 124.545C432.978 124.545 433.189 124.553 433.344 124.566C433.497 124.581 433.617 124.608 433.701 124.641C433.786 124.676 433.845 124.729 433.881 124.798C433.914 124.868 433.938 124.953 433.947 125.051L435.692 135.993H435.721C436.337 135.129 436.894 134.25 437.39 133.355C437.889 132.46 438.345 131.554 438.762 130.634C439.18 129.715 439.565 128.786 439.918 127.847C440.27 126.907 440.6 125.956 440.908 124.991C440.929 124.913 440.966 124.846 441.02 124.791C441.075 124.736 441.155 124.689 441.26 124.649C441.364 124.61 441.505 124.581 441.683 124.566C441.863 124.553 442.087 124.545 442.355 124.545C442.803 124.545 443.1 124.574 443.249 124.634C443.398 124.694 443.473 124.783 443.473 124.903Z" fill="#8240DF"/>
<defs>
<linearGradient id="paint0_linear_258_4446" x1="95.9065" y1="101.703" x2="422.132" y2="101.703" gradientUnits="userSpaceOnUse">
<stop stop-color="white" stop-opacity="0"/>
<stop offset="0.5" stop-color="white"/>
<stop offset="1" stop-color="white" stop-opacity="0"/>
</linearGradient>
<linearGradient id="paint1_linear_258_4446" x1="95.9055" y1="101.704" x2="422.131" y2="101.704" gradientUnits="userSpaceOnUse">
<stop stop-color="#2F204F"/>
<stop offset="0.5" stop-color="#2F204F"/>
<stop offset="1" stop-color="#2F204F"/>
</linearGradient>
<linearGradient id="paint2_linear_258_4446" x1="85.473" y1="101.703" x2="411.699" y2="101.703" gradientUnits="userSpaceOnUse">
<stop stop-color="white" stop-opacity="0"/>
<stop offset="0.5" stop-color="white"/>
<stop offset="1" stop-color="white" stop-opacity="0"/>
</linearGradient>
<linearGradient id="paint3_linear_258_4446" x1="85.4698" y1="101.704" x2="411.695" y2="101.704" gradientUnits="userSpaceOnUse">
<stop stop-color="#2F204F"/>
<stop offset="0.5" stop-color="#2F204F"/>
<stop offset="1" stop-color="#2F204F"/>
</linearGradient>
<linearGradient id="paint4_linear_258_4446" x1="85.4769" y1="101.703" x2="411.703" y2="101.703" gradientUnits="userSpaceOnUse">
<stop stop-color="white" stop-opacity="0"/>
<stop offset="0.5" stop-color="white"/>
<stop offset="1" stop-color="white" stop-opacity="0"/>
</linearGradient>
<linearGradient id="paint5_linear_258_4446" x1="85.4743" y1="101.704" x2="411.7" y2="101.704" gradientUnits="userSpaceOnUse">
<stop stop-color="#2F204F"/>
<stop offset="0.5" stop-color="#2F204F"/>
<stop offset="1" stop-color="#2F204F"/>
</linearGradient>
<linearGradient id="paint6_linear_258_4446" x1="85.4769" y1="101.703" x2="411.703" y2="101.703" gradientUnits="userSpaceOnUse">
<stop stop-color="white" stop-opacity="0"/>
<stop offset="0.5" stop-color="white"/>
<stop offset="1" stop-color="white" stop-opacity="0"/>
</linearGradient>
<linearGradient id="paint7_linear_258_4446" x1="85.4709" y1="101.704" x2="411.696" y2="101.704" gradientUnits="userSpaceOnUse">
<stop stop-color="#2F204F"/>
<stop offset="0.5" stop-color="#2F204F"/>
<stop offset="1" stop-color="#2F204F"/>
</linearGradient>
<linearGradient id="paint8_linear_258_4446" x1="85.4769" y1="101.703" x2="411.703" y2="101.703" gradientUnits="userSpaceOnUse">
<stop stop-color="white" stop-opacity="0"/>
<stop offset="0.5" stop-color="white"/>
<stop offset="1" stop-color="white" stop-opacity="0"/>
</linearGradient>
<linearGradient id="paint9_linear_258_4446" x1="85.4728" y1="101.704" x2="411.698" y2="101.704" gradientUnits="userSpaceOnUse">
<stop stop-color="#2F204F"/>
<stop offset="0.5" stop-color="#2F204F"/>
<stop offset="1" stop-color="#2F204F"/>
</linearGradient>
<linearGradient id="paint10_linear_258_4446" x1="85.4808" y1="101.703" x2="411.706" y2="101.703" gradientUnits="userSpaceOnUse">
<stop stop-color="white" stop-opacity="0"/>
<stop offset="0.5" stop-color="white"/>
<stop offset="1" stop-color="white" stop-opacity="0"/>
</linearGradient>
<linearGradient id="paint11_linear_258_4446" x1="85.4772" y1="101.704" x2="411.703" y2="101.704" gradientUnits="userSpaceOnUse">
<stop stop-color="#2F204F"/>
<stop offset="0.5" stop-color="#2F204F"/>
<stop offset="1" stop-color="#2F204F"/>
</linearGradient>
<linearGradient id="paint12_linear_258_4446" x1="85.4808" y1="101.703" x2="411.706" y2="101.703" gradientUnits="userSpaceOnUse">
<stop stop-color="white" stop-opacity="0"/>
<stop offset="0.5" stop-color="white"/>
<stop offset="1" stop-color="white" stop-opacity="0"/>
</linearGradient>
<linearGradient id="paint13_linear_258_4446" x1="85.4712" y1="101.704" x2="411.697" y2="101.704" gradientUnits="userSpaceOnUse">
<stop stop-color="#2F204F"/>
<stop offset="0.5" stop-color="#2F204F"/>
<stop offset="1" stop-color="#2F204F"/>
</linearGradient>
<linearGradient id="paint14_linear_258_4446" x1="85.473" y1="101.703" x2="411.699" y2="101.703" gradientUnits="userSpaceOnUse">
<stop stop-color="white" stop-opacity="0"/>
<stop offset="0.5" stop-color="white"/>
<stop offset="1" stop-color="white" stop-opacity="0"/>
</linearGradient>
<linearGradient id="paint15_linear_258_4446" x1="85.4719" y1="101.704" x2="411.697" y2="101.704" gradientUnits="userSpaceOnUse">
<stop stop-color="#2F204F"/>
<stop offset="0.5" stop-color="#2F204F"/>
<stop offset="1" stop-color="#2F204F"/>
</linearGradient>
<linearGradient id="paint16_linear_258_4446" x1="85.4769" y1="101.703" x2="411.703" y2="101.703" gradientUnits="userSpaceOnUse">
<stop stop-color="white" stop-opacity="0"/>
<stop offset="0.5" stop-color="white"/>
<stop offset="1" stop-color="white" stop-opacity="0"/>
</linearGradient>
<linearGradient id="paint17_linear_258_4446" x1="85.4713" y1="101.704" x2="411.697" y2="101.704" gradientUnits="userSpaceOnUse">
<stop stop-color="#2F204F"/>
<stop offset="0.5" stop-color="#2F204F"/>
<stop offset="1" stop-color="#2F204F"/>
</linearGradient>
<linearGradient id="paint18_linear_258_4446" x1="85.473" y1="101.703" x2="411.699" y2="101.703" gradientUnits="userSpaceOnUse">
<stop stop-color="white" stop-opacity="0"/>
<stop offset="0.5" stop-color="white"/>
<stop offset="1" stop-color="white" stop-opacity="0"/>
</linearGradient>
<linearGradient id="paint19_linear_258_4446" x1="85.4696" y1="101.704" x2="411.695" y2="101.704" gradientUnits="userSpaceOnUse">
<stop stop-color="#2F204F"/>
<stop offset="0.5" stop-color="#2F204F"/>
<stop offset="1" stop-color="#2F204F"/>
</linearGradient>
<linearGradient id="paint20_linear_258_4446" x1="85.4769" y1="101.703" x2="411.703" y2="101.703" gradientUnits="userSpaceOnUse">
<stop stop-color="white" stop-opacity="0"/>
<stop offset="0.5" stop-color="white"/>
<stop offset="1" stop-color="white" stop-opacity="0"/>
</linearGradient>
<linearGradient id="paint21_linear_258_4446" x1="85.4729" y1="101.704" x2="411.699" y2="101.704" gradientUnits="userSpaceOnUse">
<stop stop-color="#2F204F"/>
<stop offset="0.5" stop-color="#2F204F"/>
<stop offset="1" stop-color="#2F204F"/>
</linearGradient>
<linearGradient id="paint22_linear_258_4446" x1="85.473" y1="101.703" x2="411.699" y2="101.703" gradientUnits="userSpaceOnUse">
<stop stop-color="white" stop-opacity="0"/>
<stop offset="0.5" stop-color="white"/>
<stop offset="1" stop-color="white" stop-opacity="0"/>
</linearGradient>
<linearGradient id="paint23_linear_258_4446" x1="85.4713" y1="101.704" x2="411.697" y2="101.704" gradientUnits="userSpaceOnUse">
<stop stop-color="#2F204F"/>
<stop offset="0.5" stop-color="#2F204F"/>
<stop offset="1" stop-color="#2F204F"/>
</linearGradient>
<linearGradient id="paint24_linear_258_4446" x1="85.4808" y1="101.703" x2="411.706" y2="101.703" gradientUnits="userSpaceOnUse">
<stop stop-color="white" stop-opacity="0"/>
<stop offset="0.5" stop-color="white"/>
<stop offset="1" stop-color="white" stop-opacity="0"/>
</linearGradient>
<linearGradient id="paint25_linear_258_4446" x1="85.4774" y1="101.704" x2="411.703" y2="101.704" gradientUnits="userSpaceOnUse">
<stop stop-color="#2F204F"/>
<stop offset="0.5" stop-color="#2F204F"/>
<stop offset="1" stop-color="#2F204F"/>
</linearGradient>
<linearGradient id="paint26_linear_258_4446" x1="85.4769" y1="101.703" x2="411.703" y2="101.703" gradientUnits="userSpaceOnUse">
<stop stop-color="white" stop-opacity="0"/>
<stop offset="0.5" stop-color="white"/>
<stop offset="1" stop-color="white" stop-opacity="0"/>
</linearGradient>
<linearGradient id="paint27_linear_258_4446" x1="85.4729" y1="101.704" x2="411.699" y2="101.704" gradientUnits="userSpaceOnUse">
<stop stop-color="#2F204F"/>
<stop offset="0.5" stop-color="#2F204F"/>
<stop offset="1" stop-color="#2F204F"/>
</linearGradient>
<linearGradient id="paint28_linear_258_4446" x1="85.4769" y1="101.703" x2="411.703" y2="101.703" gradientUnits="userSpaceOnUse">
<stop stop-color="white" stop-opacity="0"/>
<stop offset="0.5" stop-color="white"/>
<stop offset="1" stop-color="white" stop-opacity="0"/>
</linearGradient>
<linearGradient id="paint29_linear_258_4446" x1="85.4713" y1="101.704" x2="411.697" y2="101.704" gradientUnits="userSpaceOnUse">
<stop stop-color="#2F204F"/>
<stop offset="0.5" stop-color="#2F204F"/>
<stop offset="1" stop-color="#2F204F"/>
</linearGradient>
<linearGradient id="paint30_linear_258_4446" x1="85.4808" y1="101.703" x2="411.706" y2="101.703" gradientUnits="userSpaceOnUse">
<stop stop-color="white" stop-opacity="0"/>
<stop offset="0.5" stop-color="white"/>
<stop offset="1" stop-color="white" stop-opacity="0"/>
</linearGradient>
<linearGradient id="paint31_linear_258_4446" x1="85.4735" y1="101.704" x2="411.699" y2="101.704" gradientUnits="userSpaceOnUse">
<stop stop-color="#2F204F"/>
<stop offset="0.5" stop-color="#2F204F"/>
<stop offset="1" stop-color="#2F204F"/>
</linearGradient>
</defs>
</svg>
